<svg width="190" height="93" viewBox="0 0 190 93" fill="none" xmlns="http://www.w3.org/2000/svg">
<path d="M94.9871 92.63C146.827 92.63 188.851 91.2547 188.851 89.5583C188.851 87.8619 146.827 86.4866 94.9871 86.4866C43.1474 86.4866 1.12299 87.8619 1.12299 89.5583C1.12299 91.2547 43.1474 92.63 94.9871 92.63Z" fill="#DEC5AB"/>
<path d="M54.3214 63.4764H51.9298H49.1206H43.2942H40.9026H38.0937C33.867 63.4764 30.4405 69.2487 30.4405 76.3692H33.2497C33.2497 83.4896 36.6762 89.2619 40.9032 89.2619H51.9304C56.1572 89.2619 59.5836 83.4896 59.5836 76.3692H61.9752C61.9749 69.2487 58.5481 63.4764 54.3214 63.4764Z" fill="#041801"/>
<path d="M132.371 63.4764H129.979H127.17H121.343H118.952H116.143C111.916 63.4764 108.489 69.2487 108.489 76.3692H111.298C111.298 83.4896 114.725 89.2619 118.952 89.2619H129.979C134.206 89.2619 137.632 83.4896 137.632 76.3692H140.024C140.024 69.2487 136.597 63.4764 132.371 63.4764Z" fill="#041801"/>
<path d="M14.4643 63.4764H25.4915C21.2647 63.4764 17.838 69.2487 17.838 76.3692H6.81079C6.81079 69.2487 10.2373 63.4764 14.4643 63.4764Z" fill="#041801"/>
<path d="M28.3004 63.4764H17.2732C13.0465 63.4764 9.62 69.2487 9.62 76.3692C9.62 83.4896 13.0465 89.2619 17.2732 89.2619H28.3004C32.5272 89.2619 35.9539 83.4896 35.9539 76.3692C35.9539 69.2487 32.5272 63.4764 28.3004 63.4764Z" fill="#0C2109"/>
<path d="M22.787 63.4763C27.0137 63.4763 30.4405 69.2486 30.4405 76.369C30.4405 83.4895 27.014 89.2618 22.787 89.2618" stroke="#354232" stroke-miterlimit="10"/>
<path d="M17.0655 88.3343C20.8701 88.3343 23.9544 82.9772 23.9544 76.3688C23.9544 69.7604 20.8701 64.4032 17.0655 64.4032C13.2609 64.4032 10.1766 69.7604 10.1766 76.3688C10.1766 82.9772 13.2609 88.3343 17.0655 88.3343Z" fill="#354232"/>
<path d="M16.3394 84.0133C18.369 84.0133 20.0143 80.5907 20.0143 76.3688C20.0143 72.1468 18.369 68.7242 16.3394 68.7242C14.3098 68.7242 12.6645 72.1468 12.6645 76.3688C12.6645 80.5907 14.3098 84.0133 16.3394 84.0133Z" fill="#DEC5AB"/>
<path d="M16.0525 82.4212C17.5009 82.4212 18.675 79.7115 18.675 76.3688C18.675 73.0262 17.5009 70.3164 16.0525 70.3164C14.6041 70.3164 13.4299 73.0262 13.4299 76.3688C13.4299 79.7115 14.6041 82.4212 16.0525 82.4212Z" fill="#F8E4CF"/>
<path d="M15.9104 79.2216C16.5183 79.2216 17.011 77.9444 17.011 76.3688C17.011 74.7933 16.5183 73.5161 15.9104 73.5161C15.3026 73.5161 14.8098 74.7933 14.8098 76.3688C14.8098 77.9444 15.3026 79.2216 15.9104 79.2216Z" fill="#AA8F77"/>
<path d="M30.692 63.4764H19.6648C23.8915 63.4764 27.3183 69.2487 27.3183 76.3692H38.3455C38.3455 69.2487 34.9187 63.4764 30.692 63.4764Z" fill="#354232"/>
<path d="M72.5917 63.4764H83.6189C79.3922 63.4764 75.9654 69.2487 75.9654 76.3692H64.9382C64.9382 69.2487 68.3647 63.4764 72.5917 63.4764Z" fill="#041801"/>
<path d="M86.4279 63.4763H75.401C71.1743 63.4763 67.7475 69.2486 67.7475 76.369C67.7475 83.4895 71.174 89.2618 75.401 89.2618H86.4279C90.6547 89.2618 94.0814 83.4895 94.0814 76.369C94.0811 69.2486 90.6547 63.4763 86.4279 63.4763Z" fill="#0C2109"/>
<path d="M80.9144 63.4763C85.1412 63.4763 88.5679 69.2486 88.5679 76.369C88.5679 83.4895 85.1415 89.2618 80.9144 89.2618" stroke="#354232" stroke-miterlimit="10"/>
<path d="M75.1931 88.3342C78.9977 88.3342 82.082 82.9771 82.082 76.3686C82.082 69.7602 78.9977 64.4031 75.1931 64.4031C71.3885 64.4031 68.3042 69.7602 68.3042 76.3686C68.3042 82.9771 71.3885 88.3342 75.1931 88.3342Z" fill="#354232"/>
<path d="M74.4669 84.0133C76.4965 84.0133 78.1418 80.5907 78.1418 76.3688C78.1418 72.1468 76.4965 68.7242 74.4669 68.7242C72.4373 68.7242 70.792 72.1468 70.792 76.3688C70.792 80.5907 72.4373 84.0133 74.4669 84.0133Z" fill="#DEC5AB"/>
<path d="M74.1798 82.4212C75.6282 82.4212 76.8024 79.7115 76.8024 76.3688C76.8024 73.0262 75.6282 70.3164 74.1798 70.3164C72.7314 70.3164 71.5573 73.0262 71.5573 76.3688C71.5573 79.7115 72.7314 82.4212 74.1798 82.4212Z" fill="#F8E4CF"/>
<path d="M74.038 79.2215C74.6458 79.2215 75.1386 77.9443 75.1386 76.3688C75.1386 74.7933 74.6458 73.5161 74.038 73.5161C73.4301 73.5161 72.9374 74.7933 72.9374 76.3688C72.9374 77.9443 73.4301 79.2215 74.038 79.2215Z" fill="#AA8F77"/>
<path d="M88.8194 63.4763H77.7922C82.019 63.4763 85.4457 69.2486 85.4457 76.369H96.4727C96.4727 69.2486 93.0462 63.4763 88.8194 63.4763Z" fill="#354232"/>
<path d="M22.7842 63.9423H1.45008C0.649253 63.9423 0 64.5915 0 65.3923C0 66.1932 0.649253 66.8424 1.45008 66.8424H22.7842C23.585 66.8424 24.2343 66.1932 24.2343 65.3923C24.2343 64.5918 23.585 63.9423 22.7842 63.9423Z" fill="#0C2109"/>
<path d="M29.0996 67.9285C29.0996 68.2387 28.8481 68.4899 28.5382 68.4899H16.1875C15.8773 68.4899 15.6261 68.2387 15.6261 67.9285V63.297C15.6261 62.9868 15.8773 62.7356 16.1875 62.7356H28.5382C28.8481 62.7356 29.0996 62.9868 29.0996 63.297V67.9285Z" fill="#041801"/>
<path d="M33.5907 67.9285C33.5907 68.2387 33.3392 68.4899 33.0293 68.4899H31.5323C31.2222 68.4899 30.9709 68.2387 30.9709 67.9285V63.297C30.9709 62.9868 31.2222 62.7356 31.5323 62.7356H33.0293C33.3392 62.7356 33.5907 62.9868 33.5907 63.297V67.9285Z" fill="#041801"/>
<path d="M64.2804 63.344H62.9704V76.6538H64.2804V63.344Z" fill="#041801"/>
<path d="M77.8126 63.3439H76.5026V76.6537H77.8126V63.3439Z" fill="#041801"/>
<path d="M91.3449 63.3439H90.0349V76.6537H91.3449V63.3439Z" fill="#041801"/>
<path d="M99.0016 68.5602C99.0016 68.8704 98.7504 69.1216 98.4402 69.1216H53.8946C53.5845 69.1216 53.3333 68.8704 53.3333 68.5602V68.3029C53.3333 67.9927 53.5845 67.7415 53.8946 67.7415H98.4405C98.7507 67.7415 99.0019 67.9927 99.0019 68.3029V68.5602H99.0016Z" fill="#F8E4CF"/>
<path d="M61.337 67.7415H58.7173V69.1216H61.337V67.7415Z" fill="#BD3E00"/>
<path d="M67.7931 67.7415H65.1734V69.1216H67.7931V67.7415Z" fill="#BD3E00"/>
<path d="M74.2491 67.7415H71.6294V69.1216H74.2491V67.7415Z" fill="#BD3E00"/>
<path d="M80.7052 67.7415H78.0854V69.1216H80.7052V67.7415Z" fill="#BD3E00"/>
<path d="M87.1612 67.7415H84.5414V69.1216H87.1612V67.7415Z" fill="#BD3E00"/>
<path d="M93.6173 67.7415H90.9976V69.1216H93.6173V67.7415Z" fill="#BD3E00"/>
<path d="M99.0016 76.7823C99.0016 77.0925 98.7504 77.3437 98.4402 77.3437H53.8946C53.5845 77.3437 53.3333 77.0925 53.3333 76.7823V76.5249C53.3333 76.2147 53.5845 75.9635 53.8946 75.9635H98.4405C98.7507 75.9635 99.0019 76.2147 99.0019 76.5249V76.7823H99.0016Z" fill="#F8E4CF"/>
<path d="M61.337 75.9635H58.7173V77.3437H61.337V75.9635Z" fill="#BD3E00"/>
<path d="M67.7931 75.9635H65.1734V77.3437H67.7931V75.9635Z" fill="#BD3E00"/>
<path d="M74.2491 75.9635H71.6294V77.3437H74.2491V75.9635Z" fill="#BD3E00"/>
<path d="M80.7052 75.9635H78.0854V77.3437H80.7052V75.9635Z" fill="#BD3E00"/>
<path d="M87.1612 75.9635H84.5414V77.3437H87.1612V75.9635Z" fill="#BD3E00"/>
<path d="M93.6173 75.9635H90.9976V77.3437H93.6173V75.9635Z" fill="#BD3E00"/>
<path d="M7.39246 61.1921C7.39246 61.5022 7.64396 61.7534 7.95385 61.7534H151.792C152.102 61.7534 152.354 61.5022 152.354 61.1921V0.561395C152.354 0.251224 152.102 0 151.792 0H7.95385C7.64396 0 7.39246 0.251224 7.39246 0.561395V61.1921Z" fill="#DEC5AB"/>
<path d="M90.6899 61.1022C90.6899 61.4121 90.9412 61.6636 91.2513 61.6636H151.792C152.102 61.6636 152.354 61.4121 152.354 61.1022V0.561395C152.354 0.251224 152.102 0 151.792 0H91.2513C90.9412 0 90.6899 0.251224 90.6899 0.561395V61.1022Z" fill="#F8E4CF"/>
<path d="M93.3323 58.5076C93.3323 58.7911 93.5622 59.0207 93.8457 59.0207H149.198C149.481 59.0207 149.711 58.7908 149.711 58.5076V3.15573C149.711 2.87222 149.481 2.64233 149.198 2.64233H93.8457C93.5622 2.64233 93.3323 2.87222 93.3323 3.15573V58.5076Z" fill="#DEC5AB"/>
<path d="M10.5736 58.4596C10.5736 58.7698 10.8248 59.021 11.135 59.021H86.9233C87.2332 59.021 87.4847 58.7698 87.4847 58.4596V3.20373C87.4847 2.89356 87.2332 2.64233 86.9233 2.64233H11.135C10.8248 2.64233 10.5736 2.89356 10.5736 3.20373V58.4596Z" fill="#D1B093"/>
<path d="M96.3736 1.49685C96.3736 1.80702 96.1223 2.05824 95.8122 2.05824H91.9065C91.5964 2.05824 91.3452 1.80702 91.3452 1.49685V1.02892C91.3452 0.718754 91.5964 0.467529 91.9065 0.467529H95.8122C96.1223 0.467529 96.3736 0.718754 96.3736 1.02892V1.49685Z" fill="#BD3E00"/>
<path d="M89.9989 1.49685C89.9989 1.80702 89.7477 2.05824 89.4375 2.05824H85.5319C85.2217 2.05824 84.9705 1.80702 84.9705 1.49685V1.02892C84.9705 0.718754 85.2217 0.467529 85.5319 0.467529H89.4375C89.7477 0.467529 89.9989 0.718754 89.9989 1.02892V1.49685Z" fill="#BD3E00"/>
<path d="M13.0878 1.49685C13.0878 1.80702 12.8366 2.05824 12.5264 2.05824H8.62078C8.31061 2.05824 8.05939 1.80702 8.05939 1.49685V1.02892C8.05939 0.718754 8.31061 0.467529 8.62078 0.467529H12.5264C12.8366 0.467529 13.0878 0.718754 13.0878 1.02892V1.49685Z" fill="#BD3E00"/>
<path d="M151.64 1.49685C151.64 1.80702 151.389 2.05824 151.079 2.05824H147.173C146.863 2.05824 146.612 1.80702 146.612 1.49685V1.02892C146.612 0.718754 146.863 0.467529 147.173 0.467529H151.079C151.389 0.467529 151.64 0.718754 151.64 1.02892V1.49685Z" fill="#BD3E00"/>
<path d="M154.319 63.4843C154.319 63.7944 154.068 64.0456 153.758 64.0456H5.9884C5.67823 64.0456 5.427 63.7944 5.427 63.4843V61.3321C5.427 61.022 5.67823 60.7708 5.9884 60.7708H153.757C154.068 60.7708 154.319 61.022 154.319 61.3321L154.319 63.4843Z" fill="#0C2109"/>
<path d="M172.927 61.7434H170.375H167.377H161.159H158.607H155.609C151.098 61.7434 147.441 67.9036 147.441 75.5026H150.439C150.439 83.1017 154.096 89.2619 158.607 89.2619H170.375C174.886 89.2619 178.543 83.1017 178.543 75.5026H181.095C181.095 67.9033 177.439 61.7434 172.927 61.7434Z" fill="#041801"/>
<path d="M105.137 61.7434H116.905C112.394 61.7434 108.737 67.9036 108.737 75.5026H96.9691C96.9688 67.9033 100.626 61.7434 105.137 61.7434Z" fill="#041801"/>
<path d="M119.903 61.7434H108.135C103.624 61.7434 99.9669 67.9036 99.9669 75.5026C99.9669 83.1017 103.624 89.2619 108.135 89.2619H119.903C124.414 89.2619 128.071 83.1017 128.071 75.5026C128.071 67.9033 124.414 61.7434 119.903 61.7434Z" fill="#0C2109"/>
<path d="M114.018 61.7434C118.529 61.7434 122.186 67.9036 122.186 75.5026C122.186 83.1017 118.529 89.2619 114.018 89.2619" stroke="#354232" stroke-miterlimit="10"/>
<path d="M107.913 88.2721C111.973 88.2721 115.265 82.5549 115.265 75.5023C115.265 68.4498 111.973 62.7325 107.913 62.7325C103.853 62.7325 100.561 68.4498 100.561 75.5023C100.561 82.5549 103.853 88.2721 107.913 88.2721Z" fill="#354232"/>
<path d="M107.138 83.6606C109.304 83.6606 111.06 80.0079 111.06 75.5021C111.06 70.9963 109.304 67.3436 107.138 67.3436C104.972 67.3436 103.216 70.9963 103.216 75.5021C103.216 80.0079 104.972 83.6606 107.138 83.6606Z" fill="#DEC5AB"/>
<path d="M106.832 81.9615C108.377 81.9615 109.631 79.0696 109.631 75.5023C109.631 71.9351 108.377 69.0432 106.832 69.0432C105.286 69.0432 104.033 71.9351 104.033 75.5023C104.033 79.0696 105.286 81.9615 106.832 81.9615Z" fill="#F8E4CF"/>
<path d="M106.68 78.5467C107.329 78.5467 107.855 77.1836 107.855 75.5022C107.855 73.8208 107.329 72.4578 106.68 72.4578C106.031 72.4578 105.505 73.8208 105.505 75.5022C105.505 77.1836 106.031 78.5467 106.68 78.5467Z" fill="#AA8F77"/>
<path d="M122.455 61.7434H110.687C115.198 61.7434 118.855 67.9036 118.855 75.5026H130.623C130.623 67.9033 126.966 61.7434 122.455 61.7434Z" fill="#041801"/>
<path d="M112.185 60.7708H110.927V66.9416H112.185V60.7708Z" fill="#0C2109"/>
<path d="M120.059 60.7708H118.801V66.9416H120.059V60.7708Z" fill="#0C2109"/>
<path d="M124.243 66.8148H109.027C106.022 66.8148 103.586 69.251 103.586 72.2559C103.586 75.261 106.022 77.6969 109.027 77.6969H124.243C127.248 77.6969 129.684 75.2607 129.684 72.2559C129.684 69.251 127.248 66.8148 124.243 66.8148Z" fill="#0C2109"/>
<path d="M122.78 77.6973C119.775 77.6973 117.339 75.2611 117.339 72.2562C117.339 69.2511 119.775 66.8152 122.78 66.8152" stroke="#354232" stroke-width="0.5" stroke-miterlimit="10"/>
<path d="M121.256 77.6973C118.251 77.6973 115.815 75.2611 115.815 72.2562C115.815 69.2511 118.252 66.8152 121.256 66.8152" stroke="#354232" stroke-width="0.5" stroke-miterlimit="10"/>
<path d="M119.733 77.6973C116.728 77.6973 114.292 75.2611 114.292 72.2562C114.292 69.2511 116.728 66.8152 119.733 66.8152" stroke="#354232" stroke-width="0.5" stroke-miterlimit="10"/>
<path d="M118.209 77.6973C115.204 77.6973 112.768 75.2611 112.768 72.2562C112.768 69.2511 115.204 66.8152 118.209 66.8152" stroke="#354232" stroke-width="0.5" stroke-miterlimit="10"/>
<path d="M116.685 77.6973C113.68 77.6973 111.244 75.2611 111.244 72.2562C111.244 69.2511 113.68 66.8152 116.685 66.8152" stroke="#354232" stroke-width="0.5" stroke-miterlimit="10"/>
<path d="M115.162 77.6973C112.156 77.6973 109.721 75.2611 109.721 72.2562C109.721 69.2511 112.157 66.8152 115.162 66.8152" stroke="#354232" stroke-width="0.5" stroke-miterlimit="10"/>
<path d="M113.638 77.6973C110.633 77.6973 108.197 75.2611 108.197 72.2562C108.197 69.2511 110.633 66.8152 113.638 66.8152" stroke="#354232" stroke-width="0.5" stroke-miterlimit="10"/>
<path d="M112.114 77.6973C109.109 77.6973 106.673 75.2611 106.673 72.2562C106.673 69.2511 109.11 66.8152 112.114 66.8152" stroke="#354232" stroke-width="0.5" stroke-miterlimit="10"/>
<path d="M110.591 77.6973C107.585 77.6973 105.149 75.2611 105.149 72.2562C105.149 69.2511 107.586 66.8152 110.591 66.8152" stroke="#354232" stroke-width="0.5" stroke-miterlimit="10"/>
<path d="M123.132 67.1798C123.132 67.49 122.881 67.7412 122.571 67.7412H106.384C106.074 67.7412 105.823 67.49 105.823 67.1798V66.7029C105.823 66.3927 106.074 66.1415 106.384 66.1415H122.571C122.881 66.1415 123.132 66.3927 123.132 66.7029V67.1798Z" fill="#4B5947"/>
<path d="M123.132 78.1272C123.132 78.4374 122.881 78.6886 122.571 78.6886H101.799C101.489 78.6886 101.238 78.4374 101.238 78.1272V77.6503C101.238 77.3402 101.489 77.0889 101.799 77.0889H122.571C122.881 77.0889 123.132 77.3402 123.132 77.6503V78.1272Z" fill="#4B5947"/>
<path d="M188.19 70.8408H125.389V73.9167H188.19V70.8408Z" fill="#0C2109"/>
<path d="M186.902 72.8876C188.442 72.8876 189.004 72.8876 188.817 74.0103C188.629 75.1331 187.326 79.1564 186.902 80.2792C186.478 81.4019 185.074 82.8054 182.829 82.8054C180.583 82.8054 132.17 82.8054 128.775 82.8054C125.379 82.8054 125.587 81.9633 125.389 80.8406C125.192 79.7178 124.443 74.478 124.443 73.9166C124.443 73.3552 124.726 72.8873 126.503 72.8873C128.28 72.8875 186.902 72.8876 186.902 72.8876Z" fill="#354232"/>
<path d="M180.068 76.5275C180.068 76.8374 179.817 77.0889 179.507 77.0889H152.166C151.856 77.0889 151.605 76.8374 151.605 76.5275V76.0688C151.605 75.7587 151.856 75.5074 152.166 75.5074H179.507C179.817 75.5074 180.068 75.7587 180.068 76.0688V76.5275H180.068Z" fill="#0C2109"/>
<path d="M171.226 81.4955C171.226 81.8057 170.975 82.0569 170.665 82.0569H160.653C160.343 82.0569 160.092 81.8057 160.092 81.4955V78.4499C160.092 78.1401 160.343 77.8885 160.653 77.8885H170.665C170.975 77.8885 171.226 78.1401 171.226 78.4499V81.4955Z" fill="#F8E4CF"/>
<path d="M143.546 76.2979C143.546 77.0707 142.92 77.6969 142.147 77.6969C141.375 77.6969 140.748 77.0707 140.748 76.2979C140.748 75.5252 141.375 74.8989 142.147 74.8989C142.92 74.8989 143.546 75.5254 143.546 76.2979Z" fill="#BD3E00"/>
<path d="M186.188 76.2979C186.188 77.0707 185.562 77.6969 184.789 77.6969C184.016 77.6969 183.39 77.0707 183.39 76.2979C183.39 75.5252 184.016 74.8989 184.789 74.8989C185.562 74.8989 186.188 75.5254 186.188 76.2979Z" fill="#BD3E00"/>
<path d="M102.83 19.4614C102.83 19.4614 160.747 19.4614 162.245 19.4614C163.742 19.4614 166.081 20.4907 166.923 23.204C167.765 25.9175 172.069 40.9814 172.163 41.5428C172.256 42.1042 179.494 46.1748 180.677 47.2502C183.765 50.0572 183.391 54.9225 183.391 57.7295C183.391 57.7295 186.759 60.8171 187.975 62.4079C189.192 63.9989 189.753 68.2093 189.753 69.3321C189.753 70.4549 189.379 71.9519 186.385 71.9519C183.39 71.9519 126.315 71.9519 124.818 71.9519C123.321 71.9519 123.976 71.0609 123.462 68.49C122.62 64.2795 120.214 61.7533 116.304 61.7533C116.304 61.7533 104.795 61.7533 104.094 61.7533C103.392 61.7533 101.427 61.7533 101.427 59.7884C101.427 57.8235 101.427 23.4911 101.427 22.0346C101.427 20.578 101.848 19.4614 102.83 19.4614Z" fill="#EA9633"/>
<path d="M108.811 59.0194C108.811 59.1831 108.679 59.3158 108.515 59.3158H103.774C103.611 59.3158 103.478 59.1831 103.478 59.0194V54.2787C103.478 54.1151 103.611 53.9823 103.774 53.9823H108.515C108.679 53.9823 108.811 54.1151 108.811 54.2787V59.0194Z" stroke="#CA791E" stroke-width="3" stroke-miterlimit="10"/>
<path d="M129.551 52.7078L121.777 19.4614" stroke="#CA791E" stroke-miterlimit="10"/>
<path d="M110.058 61.7533V19.4614" stroke="#CA791E" stroke-miterlimit="10"/>
<path opacity="0.5" d="M140.443 47.2505C136.373 44.7711 133.987 43.3676 133.285 42.9465C132.584 42.5255 132.394 40.701 131.647 38.4554C131.04 36.6331 127.598 24.1154 126.323 19.4614C113.804 19.4614 102.829 19.4614 102.829 19.4614C101.847 19.4614 101.426 20.5778 101.426 22.0346C101.426 23.4914 101.426 57.8235 101.426 59.7884C101.426 61.7533 103.391 61.7533 104.092 61.7533C104.794 61.7533 116.303 61.7533 116.303 61.7533C120.213 61.7533 122.619 64.2795 123.461 68.49C123.975 71.0609 123.32 71.9519 124.817 71.9519C125.451 71.9519 136.047 71.9519 148.283 71.9519C148.283 71.9519 148.283 55.3761 148.283 53.7534C148.283 52.1307 144.513 49.7302 140.443 47.2505Z" fill="#CA791E"/>
<path d="M112.373 46.6891C112.373 46.9993 112.122 47.2505 111.812 47.2505H111.707C111.396 47.2505 111.145 46.9993 111.145 46.6891V42.7627C111.145 42.4525 111.396 42.2013 111.707 42.2013H111.812C112.122 42.2013 112.373 42.4525 112.373 42.7627V46.6891Z" fill="#CA791E"/>
<path d="M99.9702 20.0166C99.9702 20.3268 100.221 20.578 100.532 20.578H169.504C169.814 20.578 170.065 20.3268 170.065 20.0166V15.4303C170.065 15.1201 169.814 14.8689 169.504 14.8689H100.532C100.221 14.8689 99.9702 15.1201 99.9702 15.4303V20.0166Z" fill="#EA9633"/>
<path d="M169.504 14.8689H124.818V20.578H169.504C169.814 20.578 170.065 20.3268 170.065 20.0166V15.4303C170.065 15.1201 169.814 14.8689 169.504 14.8689Z" fill="#E8B134"/>
<path d="M144.466 14.8689V15.9917C144.466 16.3019 144.718 16.5531 145.028 16.5531H153.729C154.04 16.5531 154.291 16.3019 154.291 15.9917V14.8689H144.466Z" fill="#BD3E00"/>
<path d="M189.752 69.3321C189.752 68.2093 189.191 63.9988 187.975 62.4081C186.759 60.8174 183.39 57.7297 183.39 57.7297V71.9518C184.987 71.9518 186.041 71.9518 186.384 71.9518C189.378 71.9518 189.752 70.4549 189.752 69.3321Z" fill="#E8B134"/>
<path d="M183.39 62.5019C183.39 64.8272 181.505 66.7123 179.179 66.7123H152.494C150.169 66.7123 148.284 64.8272 148.284 62.5019V52.9581C148.284 50.6328 150.169 48.7477 152.494 48.7477H179.179C181.505 48.7477 183.39 50.6328 183.39 52.9581V62.5019Z" fill="#F8E4CF"/>
<path d="M180.934 60.5589C180.934 62.4845 179.373 64.0458 177.447 64.0458H154.226C152.3 64.0458 150.739 62.4848 150.739 60.5589V54.6205C150.739 52.6949 152.3 51.1337 154.226 51.1337H177.447C179.373 51.1337 180.934 52.6946 180.934 54.6205V60.5589Z" fill="#0C2109"/>
<path d="M149.533 54.8763H182.14" stroke="#F8E4CF" stroke-width="2" stroke-miterlimit="10"/>
<path d="M149.533 56.8413H182.14" stroke="#F8E4CF" stroke-width="2" stroke-miterlimit="10"/>
<path d="M149.533 58.806H182.14" stroke="#F8E4CF" stroke-width="2" stroke-miterlimit="10"/>
<path d="M149.533 60.7709H182.14" stroke="#F8E4CF" stroke-width="2" stroke-miterlimit="10"/>
<path d="M149.533 62.7358H182.14" stroke="#F8E4CF" stroke-width="2" stroke-miterlimit="10"/>
<path d="M170.749 51.1953C170.749 52.0304 170.204 52.7075 169.532 52.7075H162.141C161.469 52.7075 160.924 52.0304 160.924 51.1953C160.924 50.3603 161.469 49.6832 162.141 49.6832H169.532C170.204 49.6832 170.749 50.3603 170.749 51.1953Z" fill="#F8E4CF"/>
<path d="M179.32 69.4024C179.32 69.9062 178.982 70.3146 178.565 70.3146H153.108C152.692 70.3146 152.354 69.9062 152.354 69.4024C152.354 68.8985 152.691 68.4901 153.108 68.4901H178.565C178.982 68.4901 179.32 68.8985 179.32 69.4024Z" fill="#0C2109"/>
<path d="M140.303 56.7006C133.285 50.6656 118.549 50.8059 114.338 61.7531C115.514 61.7531 116.303 61.7531 116.303 61.7531C120.213 61.7531 122.619 64.2794 123.461 68.4899C123.975 71.0608 123.321 71.9517 124.818 71.9517C125.437 71.9517 135.565 71.9517 147.442 71.9517C147.442 71.9517 147.32 62.7356 140.303 56.7006Z" fill="#E8B134"/>
<path d="M141.355 69.1215C140.303 69.1215 127.882 69.1215 127.11 69.1215C126.338 69.1215 125.664 68.7004 125.664 67.5075C125.664 66.3145 125.777 63.187 128.092 62.049C130.408 60.9111 136.553 62.5035 139.04 64.0689C142.829 66.4549 142.548 69.1215 141.355 69.1215Z" fill="#0C2109"/>
<path d="M138.885 68.3343C138.054 68.3343 128.253 68.3343 127.644 68.3343C127.035 68.3343 126.503 68.002 126.503 67.0608C126.503 66.1193 126.592 63.6514 128.419 62.7535C130.246 61.8555 135.095 63.1119 137.057 64.3473C140.047 66.2302 139.826 68.3343 138.885 68.3343Z" fill="#F8E4CF"/>
<path d="M133.284 66.0692C133.656 64.5585 132.732 63.0329 131.221 62.6617C129.71 62.2906 128.185 63.2143 127.814 64.7251C127.443 66.2358 128.366 67.7614 129.877 68.1325C131.388 68.5037 132.913 67.5799 133.284 66.0692Z" fill="white"/>
<path d="M135.754 67.6478C136.62 67.6478 137.322 66.946 137.322 66.0803C137.322 65.2147 136.62 64.5129 135.754 64.5129C134.889 64.5129 134.187 65.2147 134.187 66.0803C134.187 66.946 134.889 67.6478 135.754 67.6478Z" fill="#BD3E00"/>
<path d="M131.604 70.3144C131.604 70.6049 131.369 70.8407 131.078 70.8407H126.471C126.18 70.8407 125.945 70.6049 125.945 70.3144C125.945 70.0239 126.18 69.7881 126.471 69.7881H131.078C131.369 69.7881 131.604 70.0239 131.604 70.3144Z" fill="#BD3E00"/>
<path d="M188.516 63.3678C188 63.596 187.54 63.8326 187.164 64.069C183.375 66.4549 183.656 69.1215 184.849 69.1215C185.251 69.1215 187.311 69.1215 189.747 69.1215C189.699 67.9931 189.304 65.1626 188.516 63.3678Z" fill="#0C2109"/>
<path d="M188.926 64.4926C186.17 66.3367 186.402 68.3347 187.32 68.3347C187.549 68.3347 188.467 68.3347 189.684 68.3347C189.573 67.2964 189.324 65.7956 188.926 64.4926Z" fill="#F8E4CF"/>
<path d="M125.356 39.9992C125.077 38.8056 121.566 23.6485 121.426 23.1573C121.285 22.6661 120.935 22.4772 120.233 22.4772C119.531 22.4772 112.022 22.4772 111.531 22.4772C111.04 22.4772 110.865 22.8766 110.865 23.5082C110.865 24.1397 110.865 32.9466 110.865 33.508C110.865 34.0694 111.18 34.315 111.707 34.5256C112.233 34.7361 124.459 40.4435 124.855 40.6074C125.25 40.7711 125.479 40.5294 125.356 39.9992Z" fill="#0C2109"/>
<path d="M123.957 38.4149C123.722 37.4061 120.754 24.5923 120.635 24.1768C120.516 23.7617 120.22 23.6017 119.626 23.6017C119.033 23.6017 112.685 23.6017 112.27 23.6017C111.855 23.6017 111.706 23.9394 111.706 24.4735C111.706 25.0074 111.706 32.4526 111.706 32.9273C111.706 33.402 111.973 33.6094 112.418 33.7874C112.863 33.9653 123.199 38.7905 123.534 38.9289C123.868 39.0676 124.062 38.8632 123.957 38.4149Z" fill="#3B7977"/>
<mask id="mask0_85_942" style="mask-type:luminance" maskUnits="userSpaceOnUse" x="111" y="23" width="13" height="16">
<path d="M123.957 38.4149C123.722 37.4061 120.754 24.5923 120.635 24.1768C120.516 23.7617 120.22 23.6017 119.626 23.6017C119.033 23.6017 112.685 23.6017 112.27 23.6017C111.855 23.6017 111.706 23.9394 111.706 24.4735C111.706 25.0074 111.706 32.4526 111.706 32.9273C111.706 33.402 111.973 33.6094 112.418 33.7874C112.863 33.9653 123.199 38.7905 123.534 38.9289C123.868 39.0676 124.062 38.8632 123.957 38.4149Z" fill="white"/>
</mask>
<g mask="url(#mask0_85_942)">
<path d="M105.268 45.3734L122.548 17.2003" stroke="#6CA8A5" stroke-width="5" stroke-miterlimit="10"/>
<path d="M107.931 45.8549L125.211 17.6819" stroke="#6CA8A5" stroke-width="8" stroke-miterlimit="10"/>
</g>
<path d="M120.701 39.1572C120.701 39.4673 120.45 39.7186 120.139 39.7186H115.368C115.057 39.7186 114.806 39.4673 114.806 39.1572V29.8473C114.806 29.5374 115.057 29.2859 115.368 29.2859H120.139C120.45 29.2859 120.701 29.5374 120.701 29.8473V39.1572Z" fill="#0C2109"/>
<path d="M122.482 23.2222C122.893 23.2222 123.227 22.8887 123.227 22.4773C123.227 22.0658 122.893 21.7323 122.482 21.7323C122.07 21.7323 121.737 22.0658 121.737 22.4773C121.737 22.8887 122.07 23.2222 122.482 23.2222Z" fill="#0C2109"/>
<path d="M127.993 42.9466C127.993 43.3581 127.659 43.6916 127.248 43.6916C126.836 43.6916 126.503 43.3581 126.503 42.9466C126.503 42.5351 126.836 42.2017 127.248 42.2017C127.659 42.2017 127.993 42.5351 127.993 42.9466Z" fill="#0C2109"/>
<path d="M122.482 22.4774C122.482 22.4774 118.734 22.4774 118.127 22.4774C117.519 22.4774 117.753 24.6079 117.753 25.2628C117.753 25.9176 117.709 41.5502 117.709 42.2017C117.709 42.8532 118.127 42.9467 118.782 42.9467C119.437 42.9467 127.247 42.9467 127.247 42.9467" stroke="#0C2109" stroke-width="3" stroke-miterlimit="10"/>
<path d="M166.644 22.4772C166.644 22.4772 132.705 22.4772 130.89 22.4772C129.075 22.4772 129.496 23.9994 129.917 25.2625C130.338 26.5257 133.847 38.5957 134.268 39.5781C134.689 40.5605 135.812 41.2623 137.636 41.4026C139.461 41.543 172.162 41.543 172.162 41.543L166.644 22.4772Z" fill="#0C2109"/>
<path d="M167.109 23.8182C167.109 23.8182 134.276 23.8182 132.763 23.8182C131.249 23.8182 131.6 25.0878 131.951 26.1413C132.302 27.1947 135.229 37.2606 135.579 38.0799C135.931 38.8993 136.867 39.4845 138.389 39.6016C139.91 39.7186 171.634 39.7186 171.634 39.7186L167.109 23.8182Z" fill="#3B7977"/>
<mask id="mask1_85_942" style="mask-type:luminance" maskUnits="userSpaceOnUse" x="131" y="23" width="41" height="17">
<path d="M167.109 23.8182C167.109 23.8182 134.276 23.8182 132.763 23.8182C131.249 23.8182 131.6 25.0878 131.951 26.1413C132.302 27.1947 135.229 37.2606 135.579 38.0799C135.931 38.8993 136.867 39.4845 138.389 39.6016C139.91 39.7186 171.634 39.7186 171.634 39.7186L167.109 23.8182Z" fill="white"/>
</mask>
<g mask="url(#mask1_85_942)">
<path d="M139.509 44.726L156.789 16.5532" stroke="#6CA8A5" stroke-width="10" stroke-miterlimit="10"/>
<path d="M144.837 44.726L162.117 16.5532" stroke="#6CA8A5" stroke-width="18" stroke-miterlimit="10"/>
</g>
</svg>
