<svg width="49" height="13" viewBox="0 0 49 13" fill="none" xmlns="http://www.w3.org/2000/svg">
<path d="M20.6534 3.55076H21.5341V8.3661C21.5341 8.86326 21.4169 9.30715 21.1825 9.69778C20.9505 10.086 20.6226 10.3926 20.1989 10.6175C19.7751 10.8401 19.2779 10.9513 18.7074 10.9513C18.1368 10.9513 17.6397 10.8401 17.2159 10.6175C16.7921 10.3926 16.4631 10.086 16.2287 9.69778C15.9967 9.30715 15.8807 8.86326 15.8807 8.3661V3.55076H16.7614V8.29508C16.7614 8.65019 16.8395 8.96624 16.9957 9.24323C17.152 9.51785 17.3745 9.73447 17.6634 9.89309C17.9545 10.0493 18.3026 10.1275 18.7074 10.1275C19.1122 10.1275 19.4602 10.0493 19.7514 9.89309C20.0426 9.73447 20.2652 9.51785 20.419 9.24323C20.5753 8.96624 20.6534 8.65019 20.6534 8.29508V3.55076ZM23.1792 12.8689V5.36894H23.9888V6.23542H24.0882C24.1498 6.14072 24.235 6.01998 24.3439 5.8732C24.4552 5.72405 24.6138 5.59148 24.8198 5.47548C25.0281 5.3571 25.3098 5.29792 25.665 5.29792C26.1242 5.29792 26.5291 5.41274 26.8794 5.64238C27.2298 5.87202 27.5033 6.19754 27.6998 6.61894C27.8962 7.04034 27.9945 7.5375 27.9945 8.11042C27.9945 8.68807 27.8962 9.18878 27.6998 9.61255C27.5033 10.034 27.231 10.3607 26.883 10.5927C26.535 10.8223 26.1337 10.9371 25.6792 10.9371C25.3288 10.9371 25.0482 10.8791 24.8375 10.7631C24.6268 10.6447 24.4647 10.511 24.351 10.3618C24.2374 10.2103 24.1498 10.0848 24.0882 9.98542H24.0172V12.8689H23.1792ZM24.003 8.09621C24.003 8.50815 24.0634 8.87155 24.1841 9.18641C24.3049 9.49891 24.4812 9.74394 24.7132 9.9215C24.9453 10.0967 25.2293 10.1843 25.5655 10.1843C25.9159 10.1843 26.2083 10.092 26.4426 9.90729C26.6794 9.72027 26.8569 9.46932 26.9753 9.15445C27.0961 8.83722 27.1564 8.48447 27.1564 8.09621C27.1564 7.71269 27.0972 7.36705 26.9789 7.05928C26.8629 6.74915 26.6865 6.50412 26.4498 6.3242C26.2154 6.1419 25.9206 6.05076 25.5655 6.05076C25.2246 6.05076 24.9382 6.13717 24.7061 6.30999C24.4741 6.48045 24.2989 6.71956 24.1806 7.02732C24.0622 7.33272 24.003 7.68902 24.003 8.09621ZM30.111 3.55076V10.8235H29.2729V3.55076H30.111ZM33.8619 10.9371C33.3694 10.9371 32.9374 10.8199 32.5657 10.5856C32.1964 10.3512 31.9076 10.0233 31.6992 9.6019C31.4933 9.18049 31.3903 8.68807 31.3903 8.12462C31.3903 7.55644 31.4933 7.06047 31.6992 6.6367C31.9076 6.21293 32.1964 5.88386 32.5657 5.64948C32.9374 5.41511 33.3694 5.29792 33.8619 5.29792C34.3543 5.29792 34.7852 5.41511 35.1545 5.64948C35.5262 5.88386 35.815 6.21293 36.021 6.6367C36.2293 7.06047 36.3335 7.55644 36.3335 8.12462C36.3335 8.68807 36.2293 9.18049 36.021 9.6019C35.815 10.0233 35.5262 10.3512 35.1545 10.5856C34.7852 10.8199 34.3543 10.9371 33.8619 10.9371ZM33.8619 10.1843C34.2359 10.1843 34.5437 10.0884 34.7852 9.89664C35.0266 9.70488 35.2054 9.45275 35.3214 9.14025C35.4374 8.82775 35.4954 8.48921 35.4954 8.12462C35.4954 7.76004 35.4374 7.42031 35.3214 7.10545C35.2054 6.79058 35.0266 6.53608 34.7852 6.34195C34.5437 6.14782 34.2359 6.05076 33.8619 6.05076C33.4878 6.05076 33.18 6.14782 32.9386 6.34195C32.6971 6.53608 32.5183 6.79058 32.4023 7.10545C32.2863 7.42031 32.2283 7.76004 32.2283 8.12462C32.2283 8.48921 32.2863 8.82775 32.4023 9.14025C32.5183 9.45275 32.6971 9.70488 32.9386 9.89664C33.18 10.0884 33.4878 10.1843 33.8619 10.1843ZM39.2179 10.9513C38.8722 10.9513 38.5585 10.8862 38.2768 10.756C37.9951 10.6234 37.7714 10.4329 37.6056 10.1843C37.4399 9.93333 37.3571 9.6303 37.3571 9.27519C37.3571 8.96269 37.4186 8.70938 37.5417 8.51525C37.6648 8.31875 37.8294 8.16487 38.0353 8.0536C38.2413 7.94233 38.4686 7.85947 38.7172 7.80502C38.9681 7.7482 39.2202 7.70322 39.4735 7.67008C39.805 7.62746 40.0737 7.5955 40.2797 7.5742C40.488 7.55052 40.6395 7.51146 40.7342 7.45701C40.8313 7.40256 40.8798 7.30786 40.8798 7.17292V7.14451C40.8798 6.79413 40.7839 6.52188 40.5922 6.32775C40.4028 6.13362 40.1151 6.03655 39.7292 6.03655C39.3291 6.03655 39.0154 6.12415 38.7882 6.29934C38.5609 6.47453 38.4011 6.66155 38.3088 6.86042L37.5133 6.57633C37.6554 6.24489 37.8448 5.98684 38.0815 5.80218C38.3206 5.61515 38.581 5.48494 38.8627 5.41155C39.1468 5.3358 39.4262 5.29792 39.7008 5.29792C39.876 5.29792 40.0772 5.31922 40.3045 5.36184C40.5342 5.40208 40.7555 5.48613 40.9686 5.61397C41.184 5.74181 41.3627 5.93476 41.5048 6.1928C41.6468 6.45085 41.7179 6.7965 41.7179 7.22974V10.8235H40.8798V10.0848H40.8372C40.7804 10.2032 40.6857 10.3299 40.5531 10.4648C40.4205 10.5998 40.2441 10.7146 40.024 10.8093C39.8038 10.904 39.5351 10.9513 39.2179 10.9513ZM39.3457 10.1985C39.6771 10.1985 39.9565 10.1334 40.1838 10.0032C40.4134 9.87297 40.5862 9.70488 40.7022 9.49891C40.8206 9.29295 40.8798 9.07633 40.8798 8.84905V8.08201C40.8443 8.12462 40.7662 8.16369 40.6454 8.1992C40.527 8.23234 40.3897 8.26193 40.2335 8.28797C40.0796 8.31165 39.9293 8.33296 39.7825 8.3519C39.6381 8.36847 39.5209 8.38267 39.4309 8.39451C39.2131 8.42292 39.0095 8.46908 38.8201 8.533C38.6331 8.59456 38.4816 8.68807 38.3656 8.81354C38.252 8.93665 38.1951 9.10474 38.1951 9.3178C38.1951 9.609 38.3029 9.82917 38.5183 9.97832C38.7361 10.1251 39.0119 10.1985 39.3457 10.1985ZM45.3072 10.9371C44.8526 10.9371 44.4513 10.8223 44.1033 10.5927C43.7553 10.3607 43.4831 10.034 43.2866 9.61255C43.0901 9.18878 42.9918 8.68807 42.9918 8.11042C42.9918 7.5375 43.0901 7.04034 43.2866 6.61894C43.4831 6.19754 43.7565 5.87202 44.1069 5.64238C44.4573 5.41274 44.8621 5.29792 45.3214 5.29792C45.6765 5.29792 45.957 5.3571 46.163 5.47548C46.3713 5.59148 46.5299 5.72405 46.6388 5.8732C46.7501 6.01998 46.8365 6.14072 46.8981 6.23542H46.9691V3.55076H47.8072V10.8235H46.9975V9.98542H46.8981C46.8365 10.0848 46.7489 10.2103 46.6353 10.3618C46.5217 10.511 46.3595 10.6447 46.1488 10.7631C45.9381 10.8791 45.6576 10.9371 45.3072 10.9371ZM45.4208 10.1843C45.757 10.1843 46.0411 10.0967 46.2731 9.9215C46.5051 9.74394 46.6815 9.49891 46.8022 9.18641C46.9229 8.87155 46.9833 8.50815 46.9833 8.09621C46.9833 7.68902 46.9241 7.33272 46.8058 7.02732C46.6874 6.71956 46.5122 6.48045 46.2802 6.30999C46.0482 6.13717 45.7617 6.05076 45.4208 6.05076C45.0657 6.05076 44.7698 6.1419 44.533 6.3242C44.2987 6.50412 44.1223 6.74915 44.0039 7.05928C43.8879 7.36705 43.8299 7.71269 43.8299 8.09621C43.8299 8.48447 43.8891 8.83722 44.0075 9.15445C44.1282 9.46932 44.3058 9.72027 44.5401 9.90729C44.7769 10.092 45.0704 10.1843 45.4208 10.1843Z" fill="#F7853E"/>
<path d="M4.99994 6.69125L6.92738 8.28824L6.2846 8.82094L5.45421 8.13276V10.2353H4.54568V8.132L3.71529 8.82094L3.07251 8.28824L4.99994 6.69125ZM4.99994 2.70593C5.7799 2.70596 6.53265 2.94353 7.11508 3.37346C7.6975 3.80339 8.06898 4.39571 8.15888 5.03779C8.72411 5.16553 9.21719 5.45383 9.55195 5.8523C9.88672 6.25076 10.0419 6.73405 9.9903 7.2177C9.93872 7.70135 9.68371 8.1546 9.26981 8.49824C8.85592 8.84187 8.30947 9.05404 7.72597 9.09765V8.33944C7.93501 8.3147 8.13601 8.2557 8.31723 8.16587C8.49846 8.07606 8.65628 7.95722 8.78148 7.8163C8.90668 7.67538 8.99676 7.5152 9.04645 7.34512C9.09615 7.17504 9.10446 6.99845 9.07091 6.82568C9.03736 6.6529 8.96262 6.48739 8.85105 6.33882C8.73948 6.19024 8.59331 6.06157 8.42109 5.96032C8.24886 5.85907 8.05402 5.78727 7.84795 5.7491C7.64187 5.71093 7.42868 5.70717 7.22083 5.73803C7.29197 5.46354 7.28813 5.17933 7.20957 4.90623C7.13102 4.63314 6.97975 4.37806 6.76684 4.15968C6.55393 3.94131 6.28478 3.76517 5.97909 3.64417C5.67341 3.52317 5.33893 3.46037 5.00017 3.46037C4.66141 3.46037 4.32693 3.52317 4.02125 3.64417C3.71556 3.76517 3.44641 3.94131 3.2335 4.15968C3.02059 4.37806 2.86932 4.63314 2.79077 4.90623C2.71221 5.17933 2.70837 5.46354 2.77951 5.73803C2.36507 5.67353 1.93668 5.74811 1.58859 5.94537C1.2405 6.14263 1.00122 6.44641 0.923393 6.78989C0.845564 7.13336 0.93556 7.48838 1.17358 7.77686C1.41161 8.06534 1.77816 8.26364 2.1926 8.32814L2.27437 8.33944V9.09765C1.69085 9.0541 1.14435 8.84199 0.730392 8.49838C0.316435 8.15477 0.0613513 7.70153 0.00972311 7.21787C-0.0419051 6.7342 0.113206 6.25089 0.447948 5.85239C0.782689 5.45389 1.27577 5.16556 1.841 5.03779C1.93081 4.39567 2.30226 3.80331 2.88471 3.37336C3.46715 2.94342 4.21995 2.70588 4.99994 2.70593Z" fill="#F7853E"/>
</svg>
