<svg width="20" height="25" viewBox="0 0 20 25" fill="none" xmlns="http://www.w3.org/2000/svg">
<path d="M2.1049 16.5672L6.42903 15.2175C6.56212 15.1763 6.66037 15.0863 6.71021 14.9687H6.31192C4.8828 14.9687 3.72034 13.8072 3.72034 12.3796V12.0258H3.57177C2.86955 12.0258 2.29848 11.4552 2.29848 10.754V7.23657C2.29848 5.3114 3.05442 3.49609 4.42691 2.12504C5.79892 0.754969 7.61617 0 9.54377 0C11.4714 0 13.2886 0.754969 14.6611 2.12553C16.0336 3.49609 16.7895 5.3114 16.7895 7.23706V9.86977C16.7895 10.4752 16.2969 10.9674 15.691 10.9674H15.3682V12.38C15.3682 13.8077 14.2057 14.9692 12.7766 14.9692H12.3783C12.4281 15.0868 12.5264 15.1763 12.6599 15.218L16.9836 16.5677C18.2675 16.9679 19.0975 18.0951 19.0975 19.4395V24.3913C19.0975 24.6052 18.9243 24.7785 18.7103 24.7785H0.378633C0.164726 24.7785 -0.00852966 24.6052 -0.00852966 24.3913V19.439C-0.00901413 18.0946 0.820486 16.9674 2.1049 16.5672ZM3.57128 11.2515H3.71986V10.9669H3.39706C3.29591 10.9669 3.19767 10.9529 3.10427 10.9272C3.17541 11.1164 3.35737 11.2515 3.57128 11.2515ZM15.3677 7.23657V7.41176H15.6905C15.8032 7.41176 15.9121 7.4287 16.0147 7.46064V7.23657C16.0147 3.67322 13.112 0.774327 9.54377 0.774327C5.97557 0.774327 3.07281 3.67322 3.07281 7.23657V7.46064C3.17781 7.42808 3.28713 7.4116 3.39706 7.41176H3.71986V7.23657C3.71986 4.02989 6.33224 1.42089 9.54377 1.42089C12.7553 1.42089 15.3677 4.02989 15.3677 7.23657Z" fill="#FFCBBE"/>
<path d="M11.9026 24.7785H18.7094C18.9233 24.7785 19.0965 24.6052 19.0965 24.3913V19.439C19.0965 18.0946 18.2666 16.9675 16.9826 16.5672L13.1657 15.3757L11.9026 24.7785ZM-0.00901794 24.3913V19.439C-0.00901794 18.0946 0.820967 16.9675 2.1049 16.5672L5.92185 15.3757L7.18497 24.7785H0.377665C0.16424 24.7785 -0.00901794 24.6052 -0.00901794 24.3913Z" fill="#FB4F3B"/>
<path d="M15.6426 24.7784V22.9646C15.6426 22.7506 15.8158 22.5774 16.0297 22.5774C16.2436 22.5774 16.4169 22.7506 16.4169 22.9646V24.7784H15.6426ZM2.67064 22.9646C2.67064 22.7506 2.8439 22.5774 3.05781 22.5774C3.27171 22.5774 3.44497 22.7506 3.44497 22.9646V24.7784H2.67064V22.9646Z" fill="#EA473B"/>
<path d="M2.18959 19.7269H4.60985C4.95685 19.7269 5.23899 20.0081 5.23899 20.3541V21.2514C5.23899 21.5974 4.95685 21.8786 4.60985 21.8786H2.18959C1.8426 21.8786 1.56045 21.5974 1.56045 21.2514V20.3541C1.56094 20.0081 1.84308 19.7269 2.18959 19.7269Z" fill="#F4F8F8"/>
<path d="M1.84792 21.5689H4.26817C4.61517 21.5689 4.89732 21.2877 4.89732 20.9417V20.0444C4.89732 19.9452 4.8736 19.8513 4.83198 19.7681C5.0696 19.8576 5.23947 20.0865 5.23947 20.3541V21.2514C5.23947 21.5974 4.95733 21.8786 4.61033 21.8786H2.19007C1.94277 21.8786 1.72935 21.7353 1.62627 21.5277C1.69499 21.5539 1.76952 21.5689 1.84792 21.5689Z" fill="#E9F2F2"/>
<path d="M12.7756 14.9687H12.3773C12.3541 14.9131 12.3415 14.8516 12.3415 14.7858V13.1563C13.2688 12.3655 13.8577 11.1895 13.8577 9.87897V6.92153C13.8577 6.70762 13.6845 6.53436 13.4706 6.53436C11.8411 6.53436 10.6994 5.87328 9.87866 4.45336C9.80945 4.33382 9.68169 4.25978 9.54328 4.25978C9.40487 4.25978 9.2771 4.33334 9.2079 4.45336C8.38711 5.87328 7.24595 6.53436 5.61599 6.53436C5.40208 6.53436 5.22882 6.70762 5.22882 6.92153V9.87897C5.22882 11.1895 5.8178 12.3655 6.74505 13.1563V14.7858C6.74505 14.8516 6.73247 14.9131 6.70924 14.9687H6.31095C4.88183 14.9687 3.71937 13.8072 3.71937 12.3796V7.23658C3.71937 4.0299 6.33176 1.4209 9.54328 1.4209C12.7548 1.4209 15.3677 4.0299 15.3677 7.23658V12.3796C15.3677 13.8072 14.2047 14.9687 12.7756 14.9687Z" fill="#C6824A"/>
<path d="M14.1026 12.3796V7.23658C14.1026 4.24333 11.8261 1.77129 8.91123 1.45575C9.11885 1.433 9.32985 1.42139 9.54376 1.42139C12.7548 1.42139 15.3677 4.03039 15.3677 7.23707V12.3796C15.3677 13.8072 14.2052 14.9687 12.7761 14.9687H12.3778C12.3599 14.9261 12.3483 14.8797 12.3439 14.8308C13.3656 14.4833 14.1026 13.5164 14.1026 12.3796Z" fill="#BC7846"/>
<path d="M2.29848 7.23657C2.29848 5.3114 3.05442 3.49609 4.42692 2.12504C5.79893 0.754969 7.61618 0 9.54377 0C11.4714 0 13.2886 0.754969 14.6611 2.12553C16.0336 3.49609 16.7895 5.3114 16.7895 7.23706V9.86977C16.7895 10.4752 16.2969 10.9674 15.691 10.9674H14.981C14.7671 10.9674 14.5938 10.7941 14.5938 10.5802V7.79941C14.5938 7.5855 14.7671 7.41225 14.981 7.41225H15.691C15.8037 7.41225 15.9126 7.42919 16.0152 7.46113V7.23706C16.0147 3.67321 13.112 0.774327 9.54377 0.774327C5.97557 0.774327 3.07281 3.67321 3.07281 7.23657V7.46064C3.17781 7.42808 3.28713 7.4116 3.39706 7.41176H4.10702C4.32093 7.41176 4.49419 7.58502 4.49419 7.79893V10.5797C4.49419 10.7936 4.32093 10.9669 4.10702 10.9669H3.39706C3.29591 10.9669 3.19767 10.9529 3.10427 10.9272C3.17492 11.1164 3.35738 11.2519 3.57128 11.2519H7.26337C7.41292 10.9146 7.75023 10.6785 8.14224 10.6785H9.16435C9.69428 10.6785 10.1255 11.1092 10.1255 11.6391C10.1255 12.1686 9.69428 12.5998 9.16435 12.5998H8.14224C7.75023 12.5998 7.41243 12.3636 7.26337 12.0263H3.57128C2.86907 12.0263 2.298 11.4557 2.298 10.7544V7.23657H2.29848Z" fill="#365E7D"/>
<path d="M2.32994 10.9272C2.42335 10.9529 2.5211 10.9669 2.62274 10.9669H3.12169C3.20203 11.1348 3.37286 11.2515 3.57177 11.2515H2.79744C2.58305 11.2515 2.40108 11.1164 2.32994 10.9272ZM8.76944 0.774327C8.89963 0.774327 9.02836 0.778683 9.1566 0.786426C5.76796 0.987267 3.07281 3.8034 3.07281 7.23706V7.41225H2.62274C2.50997 7.41225 2.40108 7.42919 2.29849 7.46113V7.23706C2.29849 3.67321 5.20124 0.774327 8.76944 0.774327ZM3.36028 7.41322C3.37238 7.41273 3.38448 7.41176 3.39706 7.41176H4.10702C4.32093 7.41176 4.49419 7.58502 4.49419 7.79893V10.5797C4.49419 10.7936 4.32093 10.9669 4.10702 10.9669H3.39706C3.38448 10.9669 3.37141 10.9659 3.35883 10.9654C3.56064 10.9519 3.71986 10.7844 3.71986 10.5797V7.79893C3.71986 7.5947 3.56112 7.42773 3.36028 7.41322ZM16.0147 9.86928V7.23706C16.0147 5.31188 15.2588 3.49657 13.8863 2.12553C12.6067 0.84692 10.9395 0.104534 9.1566 0.010647C9.28534 0.00387164 9.41407 0 9.54377 0C11.4714 0 13.2886 0.754969 14.6611 2.12553C16.0336 3.49609 16.7895 5.3114 16.7895 7.23706V9.86977C16.7895 10.4752 16.2969 10.9674 15.691 10.9674H14.981C14.9737 10.9674 14.9665 10.9669 14.9597 10.9664C15.5448 10.9432 16.0147 10.4602 16.0147 9.86928ZM9.35164 11.6386C9.35164 11.1092 8.92044 10.678 8.39051 10.678H9.16483C9.69476 10.678 10.126 11.1087 10.126 11.6386C10.126 12.1681 9.69476 12.5993 9.16483 12.5993H8.39051C8.92044 12.5993 9.35164 12.1686 9.35164 11.6386Z" fill="#315B77"/>
<path d="M14.9805 7.41174H15.2409V7.46062C15.1494 7.43255 15.0531 7.41658 14.9534 7.41319C14.9621 7.41271 14.9708 7.41174 14.9805 7.41174Z" fill="#315B77"/>
<path d="M12.5932 9.24453V6.46179C12.869 6.51019 13.1608 6.53439 13.4706 6.53439C13.6845 6.53439 13.8577 6.70764 13.8577 6.92155V9.879C13.8577 11.19 13.2683 12.3656 12.341 13.1563H12.3415V14.7858C12.3415 14.991 12.463 15.1565 12.659 15.2175L13.1662 15.3758L13.1153 15.7547L11.3944 15.2175C11.1984 15.1565 11.0769 14.991 11.0769 14.7858V13.906C10.8582 13.9892 10.6312 14.056 10.397 14.103C11.707 13.1447 12.5932 11.326 12.5932 9.24453Z" fill="#F9BBAF"/>
<path d="M13.1662 15.3757L16.9831 16.5672C18.267 16.9675 19.097 18.0946 19.097 19.439V24.3913C19.097 24.6052 18.9238 24.7785 18.7099 24.7785H17.4453C17.6592 24.7785 17.8325 24.6052 17.8325 24.3913V19.439C17.8325 18.0946 17.0025 16.9675 15.7185 16.5672L13.1158 15.7547L13.1662 15.3757Z" fill="#EA473B"/>
<path d="M9.49779 19.6529C10.6394 19.6529 11.7424 19.3113 12.687 18.6642C12.7 18.6552 12.7136 18.6471 12.7277 18.64L11.9026 24.7785H7.18545L6.36902 18.7039C7.30015 19.3248 8.37985 19.6529 9.49779 19.6529Z" fill="#69D6F4"/>
</svg>
