<svg width="32" height="32" viewBox="0 0 32 32" fill="none" xmlns="http://www.w3.org/2000/svg">
<circle cx="16" cy="16" r="16" fill="#F7853E"/>
<path d="M22.2975 10.702C22.1817 10.5862 22.0291 10.5145 21.866 10.4992C21.703 10.4839 21.5397 10.526 21.4043 10.6182C20.3522 11.3353 15.0751 14.9413 14.508 15.5084C13.6855 16.3309 13.6855 17.6691 14.508 18.4916C14.9192 18.9028 15.4594 19.1084 15.9996 19.1084C16.5397 19.1084 17.0799 18.9028 17.4911 18.4916C18.0582 17.9245 21.6642 12.6474 22.3814 11.5953C22.4736 11.4599 22.5157 11.2966 22.5004 11.1335C22.4851 10.9705 22.4133 10.8179 22.2975 10.702ZM16.4967 17.4972C16.2226 17.7714 15.7765 17.7714 15.5024 17.4972C15.2282 17.2231 15.2282 16.7771 15.5022 16.503C15.7226 16.2852 17.2209 15.2167 19.0642 13.9353C17.7829 15.7787 16.7144 17.2769 16.4967 17.4972Z" fill="white"/>
<path d="M10.2425 20.2704L9.37449 20.6938C8.73936 19.5603 8.40625 18.2951 8.40625 17C8.40625 16.0511 8.58122 15.1423 8.90055 14.3041L9.89515 14.7812C9.98987 14.8268 10.0936 14.8505 10.1988 14.8505C10.4608 14.8505 10.7123 14.7034 10.8332 14.4513C11.0011 14.1012 10.8535 13.6812 10.5033 13.5132L9.52134 13.0422C10.7419 11.0517 12.8536 9.66388 15.2969 9.43852V10.4961C15.2969 10.8844 15.6117 11.1992 16 11.1992C16.3884 11.1992 16.7032 10.8844 16.7032 10.4961V9.438C17.5409 9.51425 18.3514 9.72758 19.1209 10.0749C19.4747 10.2347 19.8912 10.0772 20.051 9.72339C20.2108 9.36944 20.0534 8.95302 19.6995 8.79323C18.5335 8.26691 17.2888 8 16 8C13.596 8 11.3359 8.93614 9.63602 10.636C7.93618 12.3359 7 14.596 7 17C7 18.7764 7.52727 20.5042 8.52483 21.9962C8.61933 22.1376 8.76186 22.2399 8.92602 22.2843C9.09017 22.3286 9.26484 22.312 9.41766 22.2374L10.8591 21.5343C11.2081 21.364 11.353 20.9431 11.1827 20.5941C11.0125 20.2451 10.5915 20.1002 10.2425 20.2704ZM24.2067 13.3006C24.047 12.9467 23.6306 12.7892 23.2766 12.949C22.9227 13.1088 22.7653 13.5252 22.925 13.8791C23.3688 14.862 23.5938 15.9121 23.5938 17C23.5938 18.2971 23.2596 19.5643 22.6226 20.6991L21.7163 20.2675C21.3658 20.1006 20.9462 20.2494 20.7792 20.6001C20.6123 20.9507 20.7611 21.3702 21.1118 21.5372L22.5883 22.2403C22.7408 22.313 22.9143 22.3283 23.0772 22.2834C23.24 22.2386 23.3813 22.1367 23.4751 21.9963C24.4727 20.5042 25 18.7764 25 17C25 15.7112 24.7331 14.4665 24.2067 13.3006Z" fill="white"/>
</svg>
