<svg xmlns="http://www.w3.org/2000/svg" version="1.1" xmlns:xlink="http://www.w3.org/1999/xlink" width="512" height="512" x="0" y="0" viewBox="0 0 601.254 601.254" style="enable-background:new 0 0 512 512" xml:space="preserve" class=""><g><path d="M389.326 133.011c2.075-4.15 1.63-9.04-1.186-12.597L310.186 18.155c-2.223-2.964-5.78-4.742-9.485-4.742s-7.262 1.778-9.633 4.742l-77.954 102.259c-2.816 3.557-3.112 8.596-1.186 12.597 2.075 4.15 6.224 6.669 10.819 6.669h20.007v104.779c50.685 25.046 91.589 66.691 115.746 117.82V139.68h20.007c4.594 0 8.744-2.668 10.819-6.669zM494.253 213.188c-3.557-2.816-8.596-3.112-12.597-1.186-4.15 2.075-6.669 6.224-6.669 10.819v20.007h-5.78c-30.085 0-59.429 5.928-86.55 17.191v134.864c18.822-22.23 46.832-36.309 77.954-36.309h14.376v20.007c0 4.594 2.668 8.744 6.669 10.819 4.15 2.075 9.04 1.63 12.597-1.186l102.259-77.954a11.933 11.933 0 0 0 4.742-9.485c0-3.853-1.778-7.262-4.742-9.633z" fill="#000000" opacity="1" data-original="#000000"></path><path d="m4.891 310.112 102.259 77.954c3.557 2.816 8.596 3.26 12.597 1.186 4.15-2.075 6.669-6.224 6.669-10.819v-20.007h14.376c56.317 0 101.963 45.794 101.963 101.963v115.449a11.954 11.954 0 0 0 12.004 12.004h91.737a11.954 11.954 0 0 0 12.004-12.004V469.133c0-124.786-101.518-226.304-226.304-226.304h-5.928v-20.007c0-4.594-2.519-8.744-6.669-10.819-4.15-1.927-9.04-1.63-12.597 1.186L4.742 291.142C1.778 293.365 0 296.922 0 300.775c.148 3.705 1.778 7.114 4.891 9.337z" fill="#000000" opacity="1" data-original="#000000"></path></g></svg>