<svg width="26" height="22" viewBox="0 0 26 22" fill="none" xmlns="http://www.w3.org/2000/svg">
<path fill-rule="evenodd" clip-rule="evenodd" d="M0 1.83333C0 1.3471 0.193154 0.880788 0.536971 0.536971C0.880787 0.193155 1.3471 0 1.83333 0H23.8333C24.3196 0 24.7859 0.193155 25.1297 0.536971C25.4735 0.880788 25.6667 1.3471 25.6667 1.83333C25.6667 2.31956 25.4735 2.78588 25.1297 3.1297C24.7859 3.47351 24.3196 3.66667 23.8333 3.66667H1.83333C1.3471 3.66667 0.880787 3.47351 0.536971 3.1297C0.193154 2.78588 0 2.31956 0 1.83333ZM0 11C0 10.5138 0.193154 10.0475 0.536971 9.70364C0.880787 9.35982 1.3471 9.16667 1.83333 9.16667H12.8333C13.3196 9.16667 13.7859 9.35982 14.1297 9.70364C14.4735 10.0475 14.6667 10.5138 14.6667 11C14.6667 11.4862 14.4735 11.9525 14.1297 12.2964C13.7859 12.6402 13.3196 12.8333 12.8333 12.8333H1.83333C1.3471 12.8333 0.880787 12.6402 0.536971 12.2964C0.193154 11.9525 0 11.4862 0 11ZM0 20.1667C0 19.6804 0.193154 19.2141 0.536971 18.8703C0.880787 18.5265 1.3471 18.3333 1.83333 18.3333H23.8333C24.3196 18.3333 24.7859 18.5265 25.1297 18.8703C25.4735 19.2141 25.6667 19.6804 25.6667 20.1667C25.6667 20.6529 25.4735 21.1192 25.1297 21.463C24.7859 21.8068 24.3196 22 23.8333 22H1.83333C1.3471 22 0.880787 21.8068 0.536971 21.463C0.193154 21.1192 0 20.6529 0 20.1667Z" fill="#336FAD"/>
</svg>
