<svg width="32" height="32" viewBox="0 0 32 32" fill="none" xmlns="http://www.w3.org/2000/svg">
<circle cx="16" cy="16" r="16" fill="#F7853E"/>
<path d="M22.5714 7C22.2163 7 21.9285 7.28782 21.9285 7.64287V9.9912C18.6188 6.78695 13.3383 6.87246 10.1341 10.1821C8.62397 11.7419 7.78153 13.829 7.78572 16C7.78572 16.355 8.07354 16.6428 8.42859 16.6428C8.78364 16.6428 9.07142 16.355 9.07142 16C9.07221 12.0945 12.2388 8.92917 16.1442 8.92996C17.1252 8.93015 18.0954 9.13445 18.9932 9.52986C19.891 9.92528 20.6966 10.5032 21.359 11.2268L18.5111 12.1762C18.1739 12.2885 17.9914 12.6528 18.1036 12.9901C18.2158 13.3274 18.5802 13.5099 18.9174 13.3976L22.7746 12.1119C22.9029 12.0692 23.0145 11.987 23.0935 11.8771C23.1724 11.7672 23.2147 11.6353 23.2143 11.5V7.64283C23.2142 7.28782 22.9264 7 22.5714 7ZM23.8571 15.3571C23.502 15.3571 23.2142 15.6449 23.2142 16C23.2134 19.9054 20.0468 23.0708 16.1414 23.07C15.1604 23.0698 14.1902 22.8655 13.2924 22.4701C12.3947 22.0747 11.589 21.4968 10.9266 20.7732L13.7745 19.8237C14.1118 19.7115 14.2943 19.3472 14.182 19.0099C14.0698 18.6726 13.7055 18.4901 13.3682 18.6023L9.51107 19.888C9.38271 19.9308 9.2711 20.013 9.19215 20.1228C9.1132 20.2327 9.07092 20.3647 9.07134 20.5V24.3571C9.07134 24.7122 9.35916 25 9.71421 25C10.0693 25 10.3571 24.7122 10.3571 24.3571V22.0088C13.6668 25.213 18.9473 25.1275 22.1515 21.8179C23.6616 20.2581 24.5041 18.171 24.4999 16C24.4999 15.6449 24.2121 15.3571 23.8571 15.3571Z" fill="white"/>
</svg>
