<svg width="26" height="26" viewBox="0 0 26 26" fill="none" xmlns="http://www.w3.org/2000/svg">
<circle cx="13" cy="13" r="12.5" stroke="#333333"/>
<mask id="path-2-inside-1_434_226" fill="white">
<path d="M13.2185 6.5C11.1929 6.5 9.57248 8.12045 9.57248 10.146V11.7665C8.88379 11.7665 8.35715 12.2931 8.35715 12.9818V18.2482C8.35715 18.9369 8.88379 19.4636 9.57248 19.4636H16.8645C17.5532 19.4636 18.0798 18.9369 18.0798 18.2482V12.9818C18.0798 12.2931 17.5532 11.7665 16.8645 11.7665V10.146C16.8645 8.12045 15.2441 6.5 13.2185 6.5ZM17.2696 12.9818V18.2482C17.2696 18.4913 17.1076 18.6534 16.8645 18.6534H9.57248C9.32942 18.6534 9.16737 18.4913 9.16737 18.2482V12.9818C9.16737 12.7387 9.32942 12.5767 9.57248 12.5767H16.8645C17.1076 12.5767 17.2696 12.7387 17.2696 12.9818ZM10.3827 11.7665V10.146C10.3827 8.56607 11.6386 7.31022 13.2185 7.31022C14.7984 7.31022 16.0543 8.56607 16.0543 10.146V11.7665H10.3827Z"/>
</mask>
<path d="M13.2185 6.5C11.1929 6.5 9.57248 8.12045 9.57248 10.146V11.7665C8.88379 11.7665 8.35715 12.2931 8.35715 12.9818V18.2482C8.35715 18.9369 8.88379 19.4636 9.57248 19.4636H16.8645C17.5532 19.4636 18.0798 18.9369 18.0798 18.2482V12.9818C18.0798 12.2931 17.5532 11.7665 16.8645 11.7665V10.146C16.8645 8.12045 15.2441 6.5 13.2185 6.5ZM17.2696 12.9818V18.2482C17.2696 18.4913 17.1076 18.6534 16.8645 18.6534H9.57248C9.32942 18.6534 9.16737 18.4913 9.16737 18.2482V12.9818C9.16737 12.7387 9.32942 12.5767 9.57248 12.5767H16.8645C17.1076 12.5767 17.2696 12.7387 17.2696 12.9818ZM10.3827 11.7665V10.146C10.3827 8.56607 11.6386 7.31022 13.2185 7.31022C14.7984 7.31022 16.0543 8.56607 16.0543 10.146V11.7665H10.3827Z" fill="#333333"/>
<path d="M9.57248 11.7665V26.8253H24.6313V11.7665H9.57248ZM16.8645 11.7665H1.80568V26.8253H16.8645V11.7665ZM10.3827 11.7665H-4.67612V26.8253H10.3827V11.7665ZM16.0543 11.7665V26.8253H31.1131V11.7665H16.0543ZM13.2185 -8.55882C2.87617 -8.55882 -5.48634 -0.196311 -5.48634 10.146H24.6313C24.6313 16.4372 19.5097 21.5588 13.2185 21.5588V-8.55882ZM-5.48634 10.146V11.7665H24.6313V10.146H-5.48634ZM9.57248 -3.29237C0.567034 -3.29237 -6.70168 3.97634 -6.70168 12.9818H23.416C23.416 20.6099 17.2006 26.8253 9.57248 26.8253V-3.29237ZM-6.70168 12.9818V18.2482H23.416V12.9818H-6.70168ZM-6.70168 18.2482C-6.70168 27.2537 0.567034 34.5224 9.57248 34.5224V4.40476C17.2006 4.40476 23.416 10.6202 23.416 18.2482H-6.70168ZM9.57248 34.5224H16.8645V4.40476H9.57248V34.5224ZM16.8645 34.5224C25.8699 34.5224 33.1387 27.2537 33.1387 18.2482H3.02101C3.02101 10.6202 9.23643 4.40476 16.8645 4.40476V34.5224ZM33.1387 18.2482V12.9818H3.02101V18.2482H33.1387ZM33.1387 12.9818C33.1387 3.97634 25.8699 -3.29237 16.8645 -3.29237V26.8253C9.23643 26.8253 3.02101 20.6099 3.02101 12.9818H33.1387ZM31.9233 11.7665V10.146H1.80568V11.7665H31.9233ZM31.9233 10.146C31.9233 -0.196311 23.5608 -8.55882 13.2185 -8.55882V21.5588C6.92729 21.5588 1.80568 16.4372 1.80568 10.146H31.9233ZM2.21079 12.9818V18.2482H32.3284V12.9818H2.21079ZM2.21079 18.2482C2.21079 14.9477 3.3767 11.0271 6.51001 7.89376C9.64332 4.76045 13.564 3.59454 16.8645 3.59454V33.7122C20.4081 33.7122 24.5313 32.4653 27.8064 29.1902C31.0815 25.9151 32.3284 21.7919 32.3284 18.2482H2.21079ZM16.8645 3.59454H9.57248V33.7122H16.8645V3.59454ZM9.57248 3.59454C12.873 3.59454 16.7937 4.76045 19.927 7.89376C23.0603 11.0271 24.2262 14.9477 24.2262 18.2482H-5.89145C-5.89145 21.7919 -4.64452 25.9151 -1.36942 29.1902C1.90568 32.4653 6.02887 33.7122 9.57248 33.7122V3.59454ZM24.2262 18.2482V12.9818H-5.89145V18.2482H24.2262ZM24.2262 12.9818C24.2262 16.2823 23.0603 20.203 19.927 23.3363C16.7937 26.4696 12.873 27.6355 9.57248 27.6355V-2.48214C6.02887 -2.48214 1.90568 -1.23521 -1.36942 2.03989C-4.64452 5.31499 -5.89145 9.43818 -5.89145 12.9818H24.2262ZM9.57248 27.6355H16.8645V-2.48214H9.57248V27.6355ZM16.8645 27.6355C13.564 27.6355 9.64332 26.4696 6.51001 23.3363C3.3767 20.203 2.21079 16.2823 2.21079 12.9818H32.3284C32.3284 9.43818 31.0815 5.31499 27.8064 2.03989C24.5313 -1.23521 20.4081 -2.48214 16.8645 -2.48214V27.6355ZM25.4415 11.7665V10.146H-4.67612V11.7665H25.4415ZM25.4415 10.146C25.4415 16.8828 19.9553 22.369 13.2185 22.369V-7.7486C3.3218 -7.7486 -4.67612 0.249313 -4.67612 10.146H25.4415ZM13.2185 22.369C6.48167 22.369 0.995452 16.8828 0.995452 10.146H31.1131C31.1131 0.249313 23.1152 -7.7486 13.2185 -7.7486V22.369ZM0.995452 10.146V11.7665H31.1131V10.146H0.995452ZM16.0543 -3.29237H10.3827V26.8253H16.0543V-3.29237Z" fill="#333333" mask="url(#path-2-inside-1_434_226)"/>
<path d="M13.6236 16.1416C14.1097 15.9796 14.4338 15.534 14.4338 15.0073C14.4338 14.4452 14.083 13.9911 13.5795 13.8431C13.4662 13.8098 13.3451 13.792 13.2185 13.792C13.0919 13.792 12.9708 13.8098 12.8574 13.8431C12.354 13.9911 12.0031 14.4452 12.0031 15.0073C12.0031 15.534 12.3272 15.9796 12.8134 16.1416V17.0329C12.8134 17.276 12.9754 17.438 13.2185 17.438C13.4615 17.438 13.6236 17.276 13.6236 17.0329V16.1416ZM13.2185 15.4124C13.1626 15.4124 13.111 15.4039 13.0647 15.3877C12.9095 15.3337 12.8134 15.1945 12.8134 15.0073C12.8134 14.801 12.9301 14.6531 13.1141 14.613C13.1468 14.6059 13.1817 14.6022 13.2185 14.6022C13.2552 14.6022 13.2901 14.6059 13.3229 14.613C13.5068 14.6531 13.6236 14.801 13.6236 15.0073C13.6236 15.1945 13.5275 15.3337 13.3723 15.3877C13.326 15.4039 13.2744 15.4124 13.2185 15.4124Z" fill="#333333" stroke="#333333" stroke-width="15.0588"/>
</svg>
