<svg width="22" height="22" viewBox="0 0 22 22" fill="none" xmlns="http://www.w3.org/2000/svg">
<circle cx="11" cy="11.0001" r="11" fill="white"/>
<path d="M6.91667 10.4168H11.5833V11.5834H6.91667V13.3334L4 11.0001L6.91667 8.66678V10.4168ZM6.33291 14.5001H7.9132C8.73586 15.2262 9.81648 15.6668 11 15.6668C13.5773 15.6668 15.6667 13.5775 15.6667 11.0001C15.6667 8.42278 13.5773 6.33345 11 6.33345C9.81648 6.33345 8.73586 6.77402 7.9132 7.50011H6.33291C7.39715 6.08326 9.09154 5.16678 11 5.16678C14.2216 5.16678 16.8333 7.77845 16.8333 11.0001C16.8333 14.2217 14.2216 16.8334 11 16.8334C9.09154 16.8334 7.39715 15.917 6.33291 14.5001Z" fill="#336FAD"/>
</svg>
