<svg width="32" height="32" viewBox="0 0 32 32" fill="none" xmlns="http://www.w3.org/2000/svg">
<circle cx="16" cy="16" r="16" fill="#F7853E"/>
<path d="M22.364 9.63602C20.6641 7.93621 18.4039 7 16 7C13.5961 7 11.3359 7.93618 9.63602 9.63602C7.93621 11.3359 7 13.5961 7 16C7 18.4039 7.93618 20.6641 9.63602 22.364C11.3359 24.0638 13.5961 25 16 25C18.4039 25 20.6641 24.0638 22.364 22.364C24.0638 20.6641 25 18.4039 25 16C25 13.5961 24.0638 11.3359 22.364 9.63602ZM10.906 22.0925C11.2032 19.5354 13.4017 17.5612 16 17.5612C17.3697 17.5612 18.6577 18.0948 19.6266 19.0636C20.4451 19.8822 20.9613 20.951 21.0941 22.0923C19.7139 23.2482 17.9369 23.9453 16 23.9453C14.0631 23.9453 12.2862 23.2484 10.906 22.0925ZM16 16.4749C14.4928 16.4749 13.2665 15.2485 13.2665 13.7414C13.2665 12.234 14.4929 11.0078 16 11.0078C17.5071 11.0078 18.7335 12.234 18.7335 13.7414C18.7335 15.2485 17.5072 16.4749 16 16.4749V16.4749ZM22.0018 21.2008C21.7309 20.1095 21.1675 19.1128 20.3723 18.3179C19.7241 17.6696 18.9572 17.1834 18.1209 16.8786C19.1263 16.1968 19.7882 15.0449 19.7882 13.7414C19.7882 11.6526 18.0888 9.95312 16 9.95312C13.9112 9.95312 12.2118 11.6526 12.2118 13.7414C12.2118 15.0456 12.8743 16.1979 13.8805 16.8796C13.111 17.16 12.399 17.5936 11.7863 18.1643C10.8992 18.9905 10.2831 20.0439 9.99749 21.2C8.78777 19.8054 8.05469 17.9867 8.05469 16C8.05469 11.6189 11.6189 8.05469 16 8.05469C20.3811 8.05469 23.9453 11.6189 23.9453 16C23.9453 17.9871 23.212 19.8062 22.0018 21.2008Z" fill="white"/>
</svg>
