<svg width="32" height="32" viewBox="0 0 32 32" fill="none" xmlns="http://www.w3.org/2000/svg">
<circle cx="16" cy="16" r="16" fill="#F7853E"/>
<path d="M20.2 19.8C19.9613 19.8 19.7324 19.8948 19.5636 20.0636C19.3948 20.2324 19.3 20.4613 19.3 20.7C19.3 20.9387 19.3948 21.1676 19.5636 21.3364C19.7324 21.5052 19.9613 21.6 20.2 21.6C20.4387 21.6 20.6676 21.5052 20.8364 21.3364C21.0052 21.1676 21.1 20.9387 21.1 20.7C21.1 20.4613 21.0052 20.2324 20.8364 20.0636C20.6676 19.8948 20.4387 19.8 20.2 19.8ZM20.2 21C20.1204 21 20.0441 20.9684 19.9879 20.9121C19.9316 20.8559 19.9 20.7796 19.9 20.7C19.9 20.6204 19.9316 20.5441 19.9879 20.4879C20.0441 20.4316 20.1204 20.4 20.2 20.4C20.2796 20.4 20.3559 20.4316 20.4121 20.4879C20.4684 20.5441 20.5 20.6204 20.5 20.7C20.5 20.7796 20.4684 20.8559 20.4121 20.9121C20.3559 20.9684 20.2796 21 20.2 21ZM10.3 19.8C10.0613 19.8 9.83238 19.8948 9.6636 20.0636C9.49481 20.2324 9.39999 20.4613 9.39999 20.7C9.39999 20.9387 9.49481 21.1676 9.6636 21.3364C9.83238 21.5052 10.0613 21.6 10.3 21.6C10.5387 21.6 10.7676 21.5052 10.9364 21.3364C11.1052 21.1676 11.2 20.9387 11.2 20.7C11.2 20.4613 11.1052 20.2324 10.9364 20.0636C10.7676 19.8948 10.5387 19.8 10.3 19.8ZM10.3 21C10.2204 21 10.1441 20.9684 10.0879 20.9121C10.0316 20.8559 9.99999 20.7796 9.99999 20.7C9.99999 20.6204 10.0316 20.5441 10.0879 20.4879C10.1441 20.4316 10.2204 20.4 10.3 20.4C10.3796 20.4 10.4559 20.4316 10.5121 20.4879C10.5684 20.5441 10.6 20.6204 10.6 20.7C10.6 20.7796 10.5684 20.8559 10.5121 20.9121C10.4559 20.9684 10.3796 21 10.3 21Z" fill="white"/>
<path d="M23.0305 11.6571C22.9629 11.492 22.8475 11.3508 22.6992 11.2516C22.5509 11.1523 22.3764 11.0996 22.198 11.1H18.7V9.9C18.7 9.66131 18.6052 9.43239 18.4364 9.2636C18.2676 9.09482 18.0387 9 17.8 9H7.9C7.66131 9 7.43239 9.09482 7.2636 9.2636C7.09482 9.43239 7 9.66131 7 9.9V18.3C7.00045 18.4311 7.0297 18.5604 7.08569 18.679C7.14168 18.7975 7.22304 18.9022 7.324 18.9858C7.16493 19.1564 7.05917 19.3698 7.01969 19.5997C6.98021 19.8297 7.00875 20.0661 7.10179 20.28C7.19483 20.494 7.34832 20.6761 7.54342 20.804C7.73851 20.9319 7.96672 21 8.2 21H8.224C8.29573 21.4995 8.54512 21.9563 8.92643 22.2868C9.30775 22.6172 9.79542 22.7992 10.3 22.7992C10.8046 22.7992 11.2923 22.6172 11.6736 22.2868C12.0549 21.9563 12.3043 21.4995 12.376 21H18.124C18.1957 21.4995 18.4451 21.9563 18.8264 22.2868C19.2077 22.6172 19.6954 22.7992 20.2 22.7992C20.7046 22.7992 21.1923 22.6172 21.5736 22.2868C21.9549 21.9563 22.2043 21.4995 22.276 21H24.1C24.3387 21 24.5676 20.9052 24.7364 20.7364C24.9052 20.5676 25 20.3387 25 20.1V16.8561C25 16.5816 24.9466 16.3101 24.8419 16.0563L23.0305 11.6571ZM22.4755 11.8857L24.2869 16.2852C24.3139 16.3551 24.3357 16.4269 24.352 16.5H20.8C20.7204 16.5 20.6441 16.4684 20.5879 16.4121C20.5316 16.3559 20.5 16.2796 20.5 16.2V11.7H22.198C22.2575 11.7 22.3156 11.7176 22.365 11.7507C22.4144 11.7837 22.4529 11.8307 22.4755 11.8857ZM11.767 19.2H18.733C18.4035 19.5221 18.1894 19.9439 18.124 20.4H12.376C12.3106 19.9439 12.0965 19.5221 11.767 19.2ZM7.6 9.9C7.6 9.82044 7.63161 9.74413 7.68787 9.68787C7.74413 9.63161 7.82044 9.6 7.9 9.6H17.8C17.8796 9.6 17.9559 9.63161 18.0121 9.68787C18.0684 9.74413 18.1 9.82044 18.1 9.9V18.6H7.9C7.82044 18.6 7.74413 18.5684 7.68787 18.5121C7.63161 18.4559 7.6 18.3796 7.6 18.3V9.9ZM7.7761 20.2239C7.69234 20.14 7.63531 20.0331 7.61222 19.9169C7.58913 19.8006 7.60101 19.68 7.64636 19.5705C7.69171 19.4609 7.7685 19.3673 7.86704 19.3014C7.96557 19.2354 8.08144 19.2001 8.2 19.2H8.833C8.5035 19.5221 8.28944 19.9439 8.224 20.4H8.2C8.041 20.4003 7.888 20.337 7.7761 20.2239ZM10.3 22.2C9.90218 22.2 9.52064 22.042 9.23934 21.7607C8.95804 21.4794 8.8 21.0978 8.8 20.7C8.8 20.3022 8.95804 19.9206 9.23934 19.6393C9.52064 19.358 9.90218 19.2 10.3 19.2C10.6978 19.2 11.0794 19.358 11.3607 19.6393C11.642 19.9206 11.8 20.3022 11.8 20.7C11.8 21.0978 11.642 21.4794 11.3607 21.7607C11.0794 22.042 10.6978 22.2 10.3 22.2ZM20.2 22.2C19.8022 22.2 19.4206 22.042 19.1393 21.7607C18.858 21.4794 18.7 21.0978 18.7 20.7C18.7 20.3022 18.858 19.9206 19.1393 19.6393C19.4206 19.358 19.8022 19.2 20.2 19.2C20.5978 19.2 20.9794 19.358 21.2607 19.6393C21.542 19.9206 21.7 20.3022 21.7 20.7C21.7 21.0978 21.542 21.4794 21.2607 21.7607C20.9794 22.042 20.5978 22.2 20.2 22.2ZM24.1 20.4H22.276C22.2039 19.9006 21.9545 19.4439 21.5732 19.1134C21.192 18.7828 20.7046 18.6006 20.2 18.6H18.7V11.7H19.9V16.2C19.9 16.4387 19.9948 16.6676 20.1636 16.8364C20.3324 17.0052 20.5613 17.1 20.8 17.1H24.4V17.7H24.1C24.0204 17.7 23.9441 17.7316 23.8879 17.7879C23.8316 17.8441 23.8 17.9204 23.8 18C23.8 18.0796 23.8316 18.1559 23.8879 18.2121C23.9441 18.2684 24.0204 18.3 24.1 18.3H24.4V18.9H24.1C24.0204 18.9 23.9441 18.9316 23.8879 18.9879C23.8316 19.0441 23.8 19.1204 23.8 19.2C23.8 19.2796 23.8316 19.3559 23.8879 19.4121C23.9441 19.4684 24.0204 19.5 24.1 19.5H24.4V20.1C24.4 20.1796 24.3684 20.2559 24.3121 20.3121C24.2559 20.3684 24.1796 20.4 24.1 20.4Z" fill="white"/>
<path d="M8.5 10.8H9.4C9.47956 10.8 9.55587 10.7684 9.61213 10.7121C9.66839 10.6559 9.7 10.5796 9.7 10.5C9.7 10.4204 9.66839 10.3441 9.61213 10.2879C9.55587 10.2316 9.47956 10.2 9.4 10.2H8.5C8.42043 10.2 8.34413 10.2316 8.28786 10.2879C8.2316 10.3441 8.2 10.4204 8.2 10.5C8.2 10.5796 8.2316 10.6559 8.28786 10.7121C8.34413 10.7684 8.42043 10.8 8.5 10.8ZM10.6 10.8H17.2C17.2796 10.8 17.3559 10.7684 17.4121 10.7121C17.4684 10.6559 17.5 10.5796 17.5 10.5C17.5 10.4204 17.4684 10.3441 17.4121 10.2879C17.3559 10.2316 17.2796 10.2 17.2 10.2H10.6C10.5204 10.2 10.4441 10.2316 10.3879 10.2879C10.3316 10.3441 10.3 10.4204 10.3 10.5C10.3 10.5796 10.3316 10.6559 10.3879 10.7121C10.4441 10.7684 10.5204 10.8 10.6 10.8Z" fill="white"/>
</svg>
