<svg width="32" height="32" viewBox="0 0 32 32" fill="none" xmlns="http://www.w3.org/2000/svg">
<circle cx="16" cy="16" r="16" fill="#F7853E"/>
<path d="M19.9018 14.0823C19.8688 14.1014 19.8323 14.1138 19.7944 14.1188C19.7566 14.1238 19.7182 14.1212 19.6813 14.1114C19.6444 14.1015 19.6099 14.0844 19.5796 14.0612C19.5493 14.0379 19.5239 14.009 19.5049 13.9759C19.4858 13.9429 19.4734 13.9064 19.4684 13.8685C19.4634 13.8307 19.466 13.7923 19.4759 13.7554C19.4857 13.7185 19.5028 13.684 19.526 13.6537C19.5493 13.6234 19.5782 13.5981 19.6113 13.579L20.8981 12.8363C20.9648 12.7987 21.0436 12.789 21.1174 12.8092C21.1913 12.8294 21.2542 12.8779 21.2924 12.9442C21.3307 13.0105 21.3412 13.0893 21.3218 13.1633C21.3024 13.2373 21.2545 13.3007 21.1886 13.3397L19.9018 14.0823ZM21.8218 12.9814C20.9441 11.9814 19.8517 10.737 19.8517 9.57415C19.8517 8.15475 21.0065 7 22.4258 7C23.8452 7 25 8.15475 25 9.57415C25 10.7354 23.9094 11.9785 23.0331 12.9774C22.8947 13.1351 22.764 13.284 22.6478 13.4216C22.6205 13.4538 22.5865 13.4798 22.5482 13.4976C22.5099 13.5154 22.4682 13.5246 22.4259 13.5246H22.4258C22.3836 13.5246 22.3419 13.5154 22.3036 13.4976C22.2653 13.4798 22.2313 13.4539 22.204 13.4217C22.0886 13.2853 21.959 13.1377 21.8218 12.9814ZM20.4329 9.57415C20.4329 10.5181 21.4881 11.7202 22.2586 12.598C22.3157 12.6631 22.3716 12.7267 22.4257 12.7888C22.481 12.7254 22.5379 12.6605 22.5962 12.5941C23.3654 11.7173 24.4189 10.5166 24.4189 9.57415C24.4189 8.47521 23.5248 7.58119 22.4259 7.58119C21.327 7.58119 20.4329 8.47521 20.4329 9.57415ZM22.4258 11.0682C21.602 11.0682 20.9318 10.398 20.9318 9.57415C20.9318 8.75031 21.602 8.08007 22.4258 8.08007C23.2497 8.08007 23.9199 8.75031 23.9199 9.57415C23.9199 10.398 23.2497 11.0682 22.4258 11.0682ZM22.4258 10.487C22.9292 10.487 23.3388 10.0775 23.3388 9.57415C23.3388 9.07077 22.9292 8.66122 22.4258 8.66122C21.9225 8.66122 21.513 9.07077 21.513 9.57415C21.513 10.0775 21.9225 10.487 22.4258 10.487ZM8.96691 12.9774C8.09059 11.9785 7 10.7354 7 9.57415C7 8.15475 8.15475 7 9.57415 7C10.9935 7 12.1483 8.15475 12.1483 9.57415C12.1483 10.737 11.0559 11.9814 10.1782 12.9814C10.041 13.1377 9.91141 13.2853 9.79598 13.4217C9.7687 13.4539 9.73472 13.4799 9.69641 13.4976C9.6581 13.5154 9.61638 13.5246 9.57415 13.5246H9.57408C9.53183 13.5246 9.49009 13.5154 9.45177 13.4976C9.41346 13.4798 9.37948 13.4538 9.35221 13.4216C9.23598 13.284 9.10528 13.1351 8.96691 12.9774ZM7.58119 9.57415C7.58119 10.5166 8.63462 11.7173 9.40382 12.5941C9.46209 12.6605 9.51903 12.7254 9.5743 12.7888C9.62851 12.7267 9.68432 12.6631 9.74144 12.598C10.5119 11.7202 11.5672 10.5181 11.5672 9.57415C11.5672 8.47521 10.6731 7.58119 9.57419 7.58119C8.47525 7.58119 7.58119 8.47521 7.58119 9.57415ZM9.57415 11.0682C8.75031 11.0682 8.08007 10.398 8.08007 9.57415C8.08007 8.75031 8.75031 8.08007 9.57415 8.08007C10.398 8.08007 11.0682 8.75031 11.0682 9.57415C11.0682 10.398 10.398 11.0682 9.57415 11.0682ZM9.57415 10.487C10.0775 10.487 10.487 10.0775 10.487 9.57415C10.487 9.07077 10.0775 8.66122 9.57415 8.66122C9.07077 8.66122 8.66122 9.07077 8.66122 9.57415C8.66122 10.0775 9.07077 10.487 9.57415 10.487ZM25 21.0485C25 22.2103 23.9088 23.4543 23.032 24.4539C22.8941 24.6112 22.7637 24.7598 22.6478 24.897C22.6206 24.9292 22.5866 24.9552 22.5483 24.973C22.5099 24.9908 22.4682 25 22.426 25H22.4259C22.3837 25 22.3419 24.9908 22.3036 24.973C22.2653 24.9553 22.2313 24.9294 22.2041 24.8971C22.089 24.761 21.9597 24.6138 21.8229 24.4579C20.9447 23.4572 19.8518 22.2118 19.8518 21.0485C19.8518 19.6297 21.0065 18.4754 22.4259 18.4754C23.8453 18.4754 25 19.6297 25 21.0485ZM24.4188 21.0485C24.4188 19.9502 23.5248 19.0566 22.4258 19.0566C21.3269 19.0566 20.4329 19.9502 20.4329 21.0485C20.4329 21.9929 21.4888 23.1961 22.2597 24.0746C22.3164 24.1393 22.3719 24.2025 22.4257 24.2642C22.4806 24.2012 22.5372 24.1367 22.5951 24.0707C23.3648 23.1932 24.4188 21.9915 24.4188 21.0485ZM23.9199 21.0485C23.9199 21.873 23.2497 22.5437 22.4258 22.5437C21.602 22.5437 20.9318 21.873 20.9318 21.0485C20.9318 20.2247 21.602 19.5545 22.4258 19.5545C23.2497 19.5544 23.9199 20.2247 23.9199 21.0485ZM23.3388 21.0485C23.3388 20.5452 22.9292 20.1356 22.4258 20.1356C21.9225 20.1356 21.513 20.5452 21.513 21.0485C21.513 21.5525 21.9225 21.9625 22.4258 21.9625C22.9292 21.9625 23.3388 21.5525 23.3388 21.0485ZM12.1483 21.0485C12.1483 22.2118 11.0553 23.4572 10.1771 24.458C10.0403 24.6139 9.91108 24.7611 9.79598 24.8972C9.7687 24.9294 9.73472 24.9553 9.69641 24.9731C9.6581 24.9908 9.61638 25 9.57415 25H9.57408C9.53183 25 9.49009 24.9908 9.45177 24.973C9.41346 24.9552 9.37948 24.9293 9.35221 24.897C9.23627 24.7598 9.10596 24.6112 8.968 24.454C8.09121 23.4544 7.00004 22.2103 7.00004 21.0486C7.00004 19.6298 8.15479 18.4754 9.57419 18.4754C10.9936 18.4754 12.1483 19.6297 12.1483 21.0485ZM11.5671 21.0485C11.5671 19.9502 10.6731 19.0566 9.57415 19.0566C8.47521 19.0566 7.58119 19.9502 7.58119 21.0485C7.58119 21.9915 8.63527 23.1933 9.4049 24.0707C9.46282 24.1367 9.51936 24.2012 9.57426 24.2642C9.62811 24.2024 9.68356 24.1393 9.74031 24.0746C10.5112 23.1961 11.5671 21.9929 11.5671 21.0485ZM11.0682 21.0485C11.0682 21.873 10.398 22.5437 9.57415 22.5437C8.75031 22.5437 8.08007 21.873 8.08007 21.0485C8.08007 20.2247 8.75031 19.5545 9.57415 19.5545C10.398 19.5544 11.0682 20.2247 11.0682 21.0485ZM10.487 21.0485C10.487 20.5452 10.0775 20.1356 9.57415 20.1356C9.07077 20.1356 8.66122 20.5452 8.66122 21.0485C8.66122 21.5525 9.07077 21.9625 9.57415 21.9625C10.0775 21.9625 10.487 21.5525 10.487 21.0485ZM14.3531 15.1159C14.2761 15.1159 14.2022 15.0853 14.1477 15.0308C14.0932 14.9763 14.0626 14.9024 14.0626 14.8253V13.5848C14.0626 13.5077 14.0932 13.4338 14.1477 13.3793C14.2022 13.3248 14.2761 13.2942 14.3531 13.2942H15.5927C15.6697 13.2942 15.7437 13.3248 15.7982 13.3793C15.8526 13.4338 15.8833 13.5077 15.8833 13.5848V14.8253C15.8833 14.9024 15.8526 14.9763 15.7982 15.0308C15.7437 15.0853 15.6697 15.1159 15.5927 15.1159H14.3531ZM14.6437 14.5347H15.3021V13.8754H14.6437V14.5347ZM16.1167 14.8253V13.5848C16.1167 13.5077 16.1474 13.4338 16.2019 13.3793C16.2563 13.3248 16.3303 13.2942 16.4073 13.2942H17.6469C17.7239 13.2942 17.7978 13.3248 17.8523 13.3793C17.9068 13.4338 17.9374 13.5077 17.9374 13.5848V14.8253C17.9374 14.9024 17.9068 14.9763 17.8523 15.0308C17.7978 15.0853 17.7239 15.1159 17.6469 15.1159H16.4073C16.3303 15.1159 16.2563 15.0853 16.2019 15.0308C16.1474 14.9763 16.1167 14.9024 16.1167 14.8253ZM16.6979 14.5347H17.3563V13.8754H16.6979V14.5347ZM12.6184 19.089V18.3525C12.6184 18.2754 12.649 18.2015 12.7035 18.147C12.758 18.0925 12.8319 18.0619 12.909 18.0619H13.0237V12.2794C13.0237 12.2024 13.0543 12.1285 13.1088 12.074C13.1633 12.0195 13.2372 11.9889 13.3143 11.9889H14.1809C14.0279 11.6967 13.9482 11.3718 13.9484 11.042C13.9484 9.91072 14.8688 8.99039 16 8.99039C17.1313 8.99039 18.0516 9.91072 18.0516 11.042C18.0516 11.3834 17.9673 11.7053 17.8192 11.9889H18.6858C18.7629 11.9889 18.8368 12.0195 18.8913 12.074C18.9458 12.1285 18.9764 12.2024 18.9764 12.2794V18.0619H19.0911C19.1682 18.0619 19.2421 18.0925 19.2966 18.147C19.3511 18.2015 19.3817 18.2754 19.3817 18.3525V19.089C19.3817 19.1661 19.3511 19.24 19.2966 19.2945C19.2421 19.349 19.1682 19.3796 19.0911 19.3796H12.909C12.8319 19.3796 12.758 19.349 12.7035 19.2945C12.649 19.24 12.6184 19.1661 12.6184 19.089ZM18.8004 18.6431H13.1996V18.7984H18.8005V18.6431H18.8004ZM16.843 16.3786C16.843 16.2885 16.7438 16.2124 16.6264 16.2124H15.3736C15.2562 16.2124 15.157 16.2885 15.157 16.3786V18.0619H16.843V16.3786ZM14.5296 11.042C14.5296 11.8528 15.1892 12.5124 16 12.5124C16.8108 12.5124 17.4704 11.8528 17.4704 11.042C17.4704 10.2312 16.8108 9.57157 16 9.57157C15.1892 9.57157 14.5296 10.2312 14.5296 11.042ZM13.6048 18.0619H14.5758V16.3785C14.5758 15.9665 14.9337 15.6312 15.3735 15.6312H16.6264C17.0662 15.6312 17.4241 15.9664 17.4241 16.3785V18.0619H18.3951V12.57H17.3671C17.0039 12.8953 16.5247 13.0936 15.9999 13.0936C15.4751 13.0936 14.996 12.8954 14.6327 12.57H13.6047V18.0619H13.6048ZM15.1308 11.7081C15.0537 11.7081 14.9798 11.6774 14.9253 11.6229C14.8708 11.5684 14.8402 11.4945 14.8402 11.4175V10.6666C14.8402 10.5895 14.8708 10.5156 14.9253 10.4611C14.9798 10.4066 15.0537 10.376 15.1308 10.376H15.3339V10.1718C15.3339 10.0947 15.3646 10.0208 15.4191 9.96633C15.4735 9.91183 15.5475 9.88122 15.6245 9.88122H16.3754C16.4525 9.88122 16.5264 9.91183 16.5809 9.96633C16.6354 10.0208 16.666 10.0947 16.666 10.1718V10.376H16.8692C16.9462 10.376 17.0202 10.4066 17.0746 10.4611C17.1291 10.5156 17.1598 10.5895 17.1598 10.6666V11.4175C17.1598 11.4556 17.1522 11.4934 17.1376 11.5287C17.123 11.5639 17.1016 11.596 17.0746 11.6229C17.0477 11.6499 17.0156 11.6713 16.9804 11.6859C16.9451 11.7005 16.9073 11.7081 16.8692 11.7081H16.666V11.9112C16.666 11.9883 16.6354 12.0622 16.5809 12.1167C16.5264 12.1712 16.4525 12.2018 16.3754 12.2018H15.6245C15.5475 12.2018 15.4735 12.1712 15.4191 12.1167C15.3646 12.0622 15.3339 11.9883 15.3339 11.9112V11.7081H15.1308ZM15.4214 11.1269H15.6245C15.7016 11.1269 15.7755 11.1575 15.83 11.212C15.8845 11.2665 15.9151 11.3404 15.9151 11.4175V11.6206H16.0849V11.4175C16.0849 11.3404 16.1155 11.2665 16.17 11.212C16.2245 11.1575 16.2984 11.1269 16.3755 11.1269H16.5786V10.9571H16.3755C16.2984 10.9571 16.2245 10.9265 16.17 10.872C16.1155 10.8175 16.0849 10.7436 16.0849 10.6665V10.4624H15.9151V10.6665C15.9151 10.7436 15.8845 10.8175 15.83 10.872C15.7755 10.9265 15.7016 10.9571 15.6245 10.9571H15.4214V11.1269ZM12.3887 13.5789L11.1019 12.8363C11.0688 12.8172 11.0323 12.8048 10.9945 12.7998C10.9567 12.7949 10.9182 12.7974 10.8814 12.8073C10.8445 12.8172 10.81 12.8342 10.7797 12.8574C10.7494 12.8807 10.724 12.9097 10.705 12.9427C10.6859 12.9758 10.6735 13.0122 10.6685 13.0501C10.6635 13.0879 10.6661 13.1264 10.6759 13.1632C10.6858 13.2001 10.7029 13.2346 10.7261 13.2649C10.7494 13.2952 10.7783 13.3206 10.8114 13.3396L12.0982 14.0823C12.1312 14.1014 12.1677 14.1138 12.2056 14.1188C12.2434 14.1238 12.2818 14.1212 12.3187 14.1114C12.3556 14.1015 12.3901 14.0844 12.4204 14.0612C12.4507 14.0379 12.4761 14.009 12.4951 13.9759C12.5337 13.9091 12.5441 13.8298 12.5241 13.7554C12.5041 13.6809 12.4554 13.6175 12.3887 13.5789ZM19.4021 20.8906L18.1163 20.1469C18.0497 20.1092 17.9708 20.0993 17.897 20.1195C17.8231 20.1396 17.7601 20.1881 17.7218 20.2543C17.6835 20.3206 17.6728 20.3993 17.6922 20.4734C17.7116 20.5475 17.7595 20.6109 17.8254 20.6499L19.1111 21.3936C19.1442 21.4128 19.1806 21.4252 19.2185 21.4302C19.2563 21.4352 19.2948 21.4328 19.3316 21.4229C19.3685 21.4131 19.4031 21.396 19.4334 21.3728C19.4636 21.3496 19.4891 21.3207 19.5082 21.2876C19.5273 21.2546 19.5397 21.2181 19.5447 21.1803C19.5497 21.1424 19.5472 21.104 19.5374 21.0671C19.5275 21.0303 19.5105 20.9957 19.4873 20.9654C19.4641 20.9351 19.4352 20.9097 19.4021 20.8906ZM13.8837 20.1469L12.5979 20.8906C12.5648 20.9097 12.5359 20.9351 12.5127 20.9654C12.4895 20.9957 12.4725 21.0303 12.4626 21.0672C12.4528 21.104 12.4503 21.1425 12.4553 21.1803C12.4603 21.2181 12.4727 21.2546 12.4918 21.2876C12.5109 21.3207 12.5363 21.3497 12.5666 21.3729C12.5969 21.3961 12.6315 21.4131 12.6684 21.423C12.7052 21.4328 12.7437 21.4353 12.7815 21.4303C12.8194 21.4252 12.8558 21.4128 12.8889 21.3937L14.1746 20.65C14.2077 20.6309 14.2366 20.6054 14.2598 20.5751C14.2831 20.5449 14.3001 20.5103 14.3099 20.4734C14.3198 20.4365 14.3222 20.3981 14.3172 20.3603C14.3122 20.3224 14.2998 20.286 14.2807 20.2529C14.2616 20.2199 14.2362 20.191 14.2059 20.1677C14.1756 20.1445 14.141 20.1275 14.1041 20.1177C14.0673 20.1078 14.0288 20.1053 13.991 20.1104C13.9532 20.1154 13.9167 20.1278 13.8837 20.1469Z" fill="white"/>
</svg>
