<svg width="20" height="24" viewBox="0 0 20 24" fill="none" xmlns="http://www.w3.org/2000/svg">
<path d="M19.5816 16.5963C19.4956 16.4928 19.4112 16.3892 19.3284 16.2892C18.1891 14.9112 17.4998 14.0795 17.4998 10.1785C17.4998 8.15888 17.0166 6.50174 16.0643 5.25888C15.3621 4.34072 14.4129 3.64421 13.1617 3.12946C13.1456 3.1205 13.1312 3.10875 13.1193 3.09476C12.6692 1.58779 11.4378 0.578491 10.0489 0.578491C8.65999 0.578491 7.42904 1.58779 6.97902 3.09321C6.96701 3.10668 6.95284 3.11806 6.93708 3.12687C4.0174 4.32881 2.59847 6.63483 2.59847 10.177C2.59847 14.0795 1.91024 14.9112 0.769919 16.2877C0.687062 16.3876 0.602652 16.4891 0.516687 16.5948C0.294631 16.8626 0.153939 17.1884 0.111264 17.5336C0.0685887 17.8789 0.125715 18.2292 0.275884 18.543C0.595402 19.2162 1.27638 19.6341 2.05369 19.6341H18.0498C18.8235 19.6341 19.4998 19.2167 19.8203 18.5466C19.9711 18.2327 20.0288 17.8822 19.9865 17.5365C19.9442 17.1908 19.8037 16.8646 19.5816 16.5963ZM10.0489 23.7785C10.7972 23.7779 11.5314 23.5748 12.1736 23.1906C12.8158 22.8065 13.3421 22.2558 13.6967 21.5968C13.7134 21.5652 13.7216 21.5298 13.7206 21.4941C13.7196 21.4584 13.7094 21.4235 13.6909 21.3929C13.6725 21.3624 13.6464 21.337 13.6153 21.3195C13.5842 21.3019 13.5491 21.2927 13.5133 21.2928H6.58545C6.54968 21.2927 6.51449 21.3018 6.4833 21.3193C6.45211 21.3368 6.42599 21.3621 6.40748 21.3927C6.38897 21.4233 6.3787 21.4582 6.37767 21.494C6.37664 21.5297 6.38489 21.5651 6.40162 21.5968C6.75611 22.2557 7.28231 22.8064 7.92443 23.1905C8.56655 23.5746 9.30065 23.7778 10.0489 23.7785Z" fill="white"/>
</svg>
