<svg width="32" height="32" viewBox="0 0 32 32" fill="none" xmlns="http://www.w3.org/2000/svg">
<circle cx="16" cy="16" r="16" fill="#F7853E"/>
<path d="M16.3125 23.8771C16.0893 23.8769 15.8698 23.8196 15.675 23.7106L13.1475 22.3066C11.8909 21.608 10.8438 20.5863 10.1146 19.3472C9.38545 18.1081 9.00063 16.6966 9 15.2589V11.3619C8.99996 11.0376 9.12018 10.7248 9.33741 10.484C9.55463 10.2433 9.85342 10.0916 10.176 10.0584C11.1816 9.95177 12.1713 9.728 13.125 9.39161C13.9994 9.08253 14.8382 8.68074 15.627 8.19311C15.8334 8.06683 16.0706 8 16.3125 8C16.5544 8 16.7916 8.06683 16.998 8.19311C17.7869 8.6806 18.6257 9.08238 19.5 9.39161C20.4537 9.728 21.4434 9.95177 22.449 10.0584C22.7716 10.0916 23.0704 10.2433 23.2876 10.484C23.5048 10.7248 23.625 11.0376 23.625 11.3619V15.2589C23.6244 16.6966 23.2396 18.1081 22.5104 19.3472C21.7812 20.5863 20.7341 21.608 19.4775 22.3066L16.95 23.7114C16.7551 23.8201 16.5357 23.8772 16.3125 23.8771ZM16.3125 9.12461C16.2795 9.12432 16.2471 9.13314 16.2188 9.15011C15.3615 9.67996 14.4501 10.1167 13.5 10.4529C12.4637 10.8186 11.3881 11.0618 10.2952 11.1774C10.2488 11.1813 10.2056 11.2025 10.1741 11.2368C10.1425 11.2711 10.125 11.316 10.125 11.3626V15.2596C10.1254 16.4967 10.4564 17.7113 11.0838 18.7775C11.7112 19.8438 12.6122 20.723 13.6935 21.3241L16.221 22.7281C16.2487 22.7437 16.28 22.7519 16.3117 22.7519C16.3435 22.7519 16.3748 22.7437 16.4025 22.7281L18.9315 21.3241C20.0128 20.723 20.9138 19.8438 21.5412 18.7775C22.1686 17.7113 22.4996 16.4967 22.5 15.2596V11.3619C22.5 11.3153 22.4825 11.2704 22.4509 11.2361C22.4194 11.2018 22.3762 11.1806 22.3298 11.1766C21.2369 11.061 20.1613 10.8179 19.125 10.4521C18.175 10.1164 17.2636 9.68019 16.4062 9.15086C16.3781 9.13348 16.3456 9.12438 16.3125 9.12461Z" fill="white"/>
<path d="M15.9375 17.6094C15.7997 17.6095 15.6667 17.5587 15.564 17.4669L13.8765 15.9669C13.7719 15.8661 13.7103 15.7287 13.7047 15.5835C13.6991 15.4383 13.7499 15.2966 13.8464 15.188C13.943 15.0794 14.0778 15.0124 14.2227 15.001C14.3675 14.9896 14.5112 15.0347 14.6235 15.1269L15.9015 16.2624L18.3397 13.6621C18.3899 13.607 18.4506 13.5624 18.5182 13.5309C18.5858 13.4994 18.659 13.4817 18.7335 13.4788C18.808 13.4758 18.8823 13.4877 18.9522 13.5138C19.0221 13.5398 19.0861 13.5795 19.1405 13.6305C19.1948 13.6815 19.2385 13.7429 19.269 13.8109C19.2995 13.879 19.3161 13.9524 19.318 14.0269C19.3198 14.1015 19.3068 14.1756 19.2798 14.2451C19.2527 14.3146 19.212 14.378 19.1602 14.4316L16.3477 17.4316C16.2952 17.4878 16.2317 17.5326 16.1611 17.5632C16.0905 17.5938 16.0144 17.6095 15.9375 17.6094Z" fill="white"/>
</svg>
