<svg width="32" height="32" viewBox="0 0 32 32" fill="none" xmlns="http://www.w3.org/2000/svg">
<circle cx="16" cy="16" r="16" fill="#F7853E"/>
<path d="M19.9531 20.9219C19.7591 20.9219 19.6016 21.0794 19.6016 21.2734C19.6016 21.4675 19.7591 21.625 19.9531 21.625C20.1472 21.625 20.3047 21.4675 20.3047 21.2734C20.3047 21.0794 20.1472 20.9219 19.9531 20.9219Z" fill="white"/>
<path d="M20.8187 19.785L19.1478 19.2282L18.5479 18.0284C19.0883 17.4783 19.4635 16.7505 19.5901 15.9914L19.6649 15.543H20.3047C20.8862 15.543 21.3594 15.0698 21.3594 14.4883V12.2734C21.3594 9.36566 18.9937 7 16.0859 7C13.1707 7 10.8125 9.35888 10.8125 12.2734V14.4883C10.8125 14.9466 11.1064 15.3374 11.5156 15.4825V15.8945C11.5156 16.4761 11.9888 16.9492 12.5703 16.9492H12.8791C13.031 17.2802 13.2296 17.5877 13.4688 17.8624C13.5187 17.9195 13.5703 17.9751 13.6237 18.029L13.0241 19.2282L11.3531 19.7851C9.41019 20.4329 8 22.4783 8 24.6484C8 24.8426 8.15739 25 8.35156 25H23.8203C24.0144 25 24.1719 24.8426 24.1719 24.6484C24.1719 22.4783 22.7617 20.4329 20.8187 19.785ZM20.6562 14.4883C20.6562 14.6821 20.4985 14.8398 20.3047 14.8398H19.7681C19.8575 14.1476 19.9171 13.411 19.941 12.6855C19.9417 12.665 19.9423 12.6451 19.9429 12.625H20.6562V14.4883ZM11.8672 14.8398C11.6733 14.8398 11.5156 14.6821 11.5156 14.4883V12.625H12.2292C12.2304 12.6617 12.2316 12.6985 12.233 12.7356L12.2331 12.7394V12.7397C12.2577 13.4453 12.3165 14.1628 12.4038 14.8398H11.8672V14.8398ZM12.5703 16.2461C12.3765 16.2461 12.2188 16.0884 12.2188 15.8945V15.543H12.507L12.5818 15.9915C12.5962 16.077 12.6135 16.1619 12.6339 16.2461H12.5703ZM12.2193 11.9219H11.529C11.7071 9.56567 13.6734 7.70312 16.0859 7.70312C18.4877 7.70312 20.4627 9.56542 20.6429 11.9219H19.9526C19.9272 9.9803 18.3462 8.40625 16.4006 8.40625H15.7713C13.8258 8.40625 12.2446 9.9803 12.2193 11.9219ZM15.7713 9.10938H16.4006C17.9759 9.10938 19.2509 10.3979 19.25 11.9714C19.25 12.0821 19.2491 12.1784 19.2473 12.2661L19.2472 12.2695L18.8075 12.2067C17.6129 12.0361 16.4849 11.4721 15.6314 10.6186C15.5655 10.5527 15.476 10.5156 15.3828 10.5156C14.4387 10.5156 13.5349 10.9458 12.9374 11.6725C13.0846 10.241 14.2948 9.10938 15.7713 9.10938ZM13.3627 16.2461C13.1867 15.6606 12.9854 13.938 12.9409 12.8341L13.414 12.2032C13.8486 11.6239 14.5247 11.264 15.2439 11.2227C16.1902 12.1233 17.4144 12.718 18.7081 12.9027L19.2256 12.9767C19.191 13.7109 19.1203 14.4477 19.0191 15.1253L19.019 15.1261C18.9868 15.3439 18.9614 15.4841 18.8965 15.8757C18.7104 16.9925 17.8771 18.0023 16.7771 18.2774C16.3233 18.3904 15.8487 18.3904 15.395 18.2774C14.7081 18.1056 14.0783 17.6304 13.6719 16.9492H14.3886C14.5337 17.3584 14.9245 17.6523 15.3828 17.6523H16.0859C16.6687 17.6523 17.1406 17.1804 17.1406 16.5977C17.1406 16.0161 16.6675 15.543 16.0859 15.543H15.3828C14.9143 15.543 14.5293 15.8456 14.388 16.2461H13.3627ZM15.3532 18.9888C15.5942 19.0397 15.8397 19.0655 16.0859 19.0656C16.2783 19.0656 16.4707 19.0495 16.6608 19.0183L16.0396 19.6753L15.3532 18.9888ZM15.5563 20.1864L14.4412 21.3656C14.134 20.7775 13.8709 20.1674 13.6541 19.5404L14.0729 18.7029L15.5563 20.1864ZM18.0394 18.5838L18.5177 19.5403C18.3009 20.1676 18.0378 20.7779 17.7305 21.3661L16.537 20.1726L18.0394 18.5838ZM15.0312 16.5977C15.0312 16.4036 15.1887 16.2461 15.3828 16.2461H16.0859C16.2798 16.2461 16.4375 16.4038 16.4375 16.5977C16.4375 16.7918 16.28 16.9492 16.0859 16.9492H15.3828C15.189 16.9492 15.0312 16.7915 15.0312 16.5977ZM8.71719 24.2969C8.85651 22.5553 10.0156 20.9723 11.5755 20.4521L13.0553 19.9589C13.3268 20.7095 13.6616 21.4356 14.056 22.1295L14.0579 22.133L14.058 22.1331C14.3479 22.6424 14.6693 23.1332 15.0203 23.6026L15.4528 24.2969H8.71719ZM16.0859 23.9835L15.6091 23.218C15.6038 23.2095 15.5981 23.2011 15.5921 23.193C15.3072 22.8129 15.0428 22.4178 14.7999 22.0096L16.0537 20.6837L17.3748 22.0048C17.1312 22.4147 16.8658 22.8114 16.5799 23.193C16.5627 23.2159 16.5871 23.1798 16.0859 23.9835ZM16.7191 24.2969L17.1516 23.6026C17.5053 23.1297 17.8289 22.635 18.1206 22.1214C18.1224 22.1183 18.124 22.1151 18.1258 22.1121L18.1264 22.1109C18.5163 21.4227 18.8475 20.7028 19.1165 19.9589L20.5964 20.4521C22.1563 20.9723 23.3154 22.5553 23.4547 24.2969H16.7191Z" fill="white"/>
<path d="M22.3981 22.8741C22.1632 22.4039 21.819 21.9861 21.4029 21.6659C21.249 21.5475 21.0282 21.5763 20.9099 21.7302C20.7915 21.8841 20.8203 22.1048 20.9741 22.2232C21.3065 22.4789 21.5814 22.8127 21.7691 23.1884C21.856 23.3624 22.0673 23.4324 22.2407 23.3458C22.4143 23.259 22.4848 23.0478 22.3981 22.8741Z" fill="white"/>
</svg>
