<svg width="32" height="32" viewBox="0 0 32 32" fill="none" xmlns="http://www.w3.org/2000/svg">
<circle cx="16" cy="16" r="16" fill="#F7853E"/>
<path d="M14.3438 15.0312H11.25C11.1754 15.0312 11.1039 15.0016 11.0511 14.9489C10.9984 14.8961 10.9688 14.8246 10.9688 14.75C10.9688 14.6754 10.9984 14.6039 11.0511 14.5511C11.1039 14.4984 11.1754 14.4688 11.25 14.4688H14.3438C14.4183 14.4688 14.4899 14.4984 14.5426 14.5511C14.5954 14.6039 14.625 14.6754 14.625 14.75C14.625 14.8246 14.5954 14.8961 14.5426 14.9489C14.4899 15.0016 14.4183 15.0312 14.3438 15.0312ZM11.25 13.0625H18.5625C18.6371 13.0625 18.7086 13.0921 18.7614 13.1449C18.8141 13.1976 18.8438 13.2692 18.8438 13.3438C18.8438 13.4183 18.8141 13.4899 18.7614 13.5426C18.7086 13.5954 18.6371 13.625 18.5625 13.625H11.25C11.1754 13.625 11.1039 13.5954 11.0511 13.5426C10.9984 13.4899 10.9688 13.4183 10.9688 13.3438C10.9688 13.2692 10.9984 13.1976 11.0511 13.1449C11.1039 13.0921 11.1754 13.0625 11.25 13.0625ZM11.25 11.6562H18.5625C18.6371 11.6562 18.7086 11.6859 18.7614 11.7386C18.8141 11.7914 18.8438 11.8629 18.8438 11.9375C18.8438 12.0121 18.8141 12.0836 18.7614 12.1364C18.7086 12.1891 18.6371 12.2188 18.5625 12.2188H11.25C11.1754 12.2188 11.1039 12.1891 11.0511 12.1364C10.9984 12.0836 10.9688 12.0121 10.9688 11.9375C10.9688 11.8629 10.9984 11.7914 11.0511 11.7386C11.1039 11.6859 11.1754 11.6562 11.25 11.6562ZM11.25 10.25H18.5625C18.6371 10.25 18.7086 10.2796 18.7614 10.3324C18.8141 10.3851 18.8438 10.4567 18.8438 10.5312C18.8438 10.6058 18.8141 10.6774 18.7614 10.7301C18.7086 10.7829 18.6371 10.8125 18.5625 10.8125H11.25C11.1754 10.8125 11.1039 10.7829 11.0511 10.7301C10.9984 10.6774 10.9688 10.6058 10.9688 10.5312C10.9688 10.4567 10.9984 10.3851 11.0511 10.3324C11.1039 10.2796 11.1754 10.25 11.25 10.25Z" fill="white"/>
<path d="M22.7362 14.7528L22.545 14.9469L22.3425 14.7444L22.5197 14.5672C22.7546 14.3331 22.8923 14.0188 22.9051 13.6875C22.918 13.3561 22.8051 13.0321 22.5891 12.7805C22.3731 12.5289 22.0699 12.3683 21.7404 12.3309C21.4109 12.2934 21.0794 12.382 20.8125 12.5788V8.84375C20.8118 8.62018 20.7227 8.40596 20.5646 8.24787C20.4065 8.08978 20.1923 8.00067 19.9688 8H9.84375C9.62018 8.00067 9.40596 8.08978 9.24787 8.24787C9.08978 8.40596 9.00067 8.62018 9 8.84375V22.3438C9.00067 22.5673 9.08978 22.7815 9.24787 22.9396C9.40596 23.0977 9.62018 23.1868 9.84375 23.1875H19.9688C20.1923 23.1868 20.4065 23.0977 20.5646 22.9396C20.7227 22.7815 20.8118 22.5673 20.8125 22.3438V17.4753L23.1356 15.1522C23.1886 15.0992 23.2183 15.0274 23.2183 14.9525C23.2183 14.8776 23.1886 14.8058 23.1356 14.7528C23.0827 14.6999 23.0108 14.6701 22.9359 14.6701C22.861 14.6701 22.7892 14.6999 22.7362 14.7528ZM20.25 17.2419L19.9209 17.5709C19.8731 17.6182 19.8439 17.6811 19.8388 17.7481C19.8336 17.8151 19.8528 17.8818 19.8928 17.9358C19.9328 17.9898 19.9909 18.0276 20.0565 18.0422C20.1222 18.0568 20.1909 18.0473 20.25 18.0153V22.3438C20.25 22.4183 20.2204 22.4899 20.1676 22.5426C20.1149 22.5954 20.0433 22.625 19.9688 22.625H9.84375C9.76916 22.625 9.69762 22.5954 9.64488 22.5426C9.59213 22.4899 9.5625 22.4183 9.5625 22.3438V8.84375C9.5625 8.76916 9.59213 8.69762 9.64488 8.64488C9.69762 8.59213 9.76916 8.5625 9.84375 8.5625H19.9688C20.0433 8.5625 20.1149 8.59213 20.1676 8.64488C20.2204 8.69762 20.25 8.76916 20.25 8.84375V13.1188C19.0688 14.3 14.985 18.3837 14.9822 18.3894C14.9026 18.469 14.8449 18.5098 14.8247 18.6172C14.8179 18.6453 14.4422 20.357 14.4422 20.3863L14.1581 20.6703C14.1052 20.7233 14.0754 20.7951 14.0754 20.87C14.0754 20.9449 14.1052 21.0167 14.1581 21.0697C14.2111 21.1226 14.2829 21.1524 14.3578 21.1524C14.4327 21.1524 14.5045 21.1226 14.5575 21.0697L14.8444 20.7828C14.888 20.7828 16.5693 20.413 16.6106 20.4031C16.7386 20.373 16.7487 20.341 16.8413 20.2484L20.25 16.8369V17.2419ZM15.2297 19.0981L16.1297 19.9981C15.1999 20.2043 15.7326 20.0873 14.9794 20.2484C15.1349 19.5208 15.075 19.7959 15.2297 19.0981ZM16.6584 19.6381L15.5925 18.5722C15.6797 18.4805 19.6481 14.5135 19.7381 14.4237L20.8041 15.4897C20.6477 15.6452 16.7906 19.4989 16.6584 19.6381ZM20.8125 16.6794V16.2744C21.7575 15.3294 21.5103 15.576 21.9459 15.1437L22.1484 15.3434L20.8125 16.6794ZM22.1203 14.1706C21.6489 14.642 21.8548 14.4356 21.2034 15.0903H21.2006L20.1403 14.0272C20.3037 13.8598 20.1448 14.0196 21.0572 13.1075C21.1987 12.9689 21.3891 12.8917 21.5872 12.8927C21.7852 12.8937 21.9749 12.9728 22.115 13.1128C22.255 13.2529 22.3342 13.4426 22.3352 13.6406C22.3362 13.8387 22.2589 14.0292 22.1203 14.1706Z" fill="white"/>
</svg>
