<svg width="32" height="32" viewBox="0 0 32 32" fill="none" xmlns="http://www.w3.org/2000/svg">
<circle cx="16" cy="16" r="16" fill="#F7853E"/>
<path d="M23.2 16.9V16.3C23.3656 16.3 23.5 16.1657 23.5 16V14.2C23.5 14.0343 23.3656 13.9 23.2 13.9H21.58L21.5219 13.6746C21.3893 13.1592 21.1831 12.6655 20.9098 12.2088L20.7898 12.0081L21.94 10.8559C22.0558 10.7399 22.0558 10.5519 21.94 10.4359L20.6659 9.16C20.6093 9.106 20.5341 9.07588 20.4559 9.07588C20.3776 9.07588 20.3024 9.106 20.2458 9.16L19.0935 10.3123L18.8929 10.1923C18.4356 9.91888 17.9413 9.71267 17.4252 9.57999L17.2 9.5214V7.9C17.2 7.73431 17.0657 7.6 16.9 7.6H15.1C14.9343 7.6 14.8 7.73431 14.8 7.9V9.51999L14.5746 9.57822C14.0592 9.71081 13.5655 9.91679 13.1086 10.1898L12.9079 10.31L11.7559 9.16C11.6992 9.10558 11.6237 9.0752 11.5451 9.0752C11.4666 9.0752 11.3911 9.10558 11.3344 9.16L10.06 10.4341C10.0322 10.4617 10.0102 10.4946 9.9952 10.5308C9.98018 10.567 9.97244 10.6058 9.97244 10.645C9.97244 10.6842 9.98018 10.723 9.9952 10.7592C10.0102 10.7954 10.0322 10.8283 10.06 10.856L11.2123 12.0081L11.0923 12.2089C10.819 12.6655 10.6129 13.1592 10.4804 13.6747L10.4215 13.9H8.79999C8.6343 13.9 8.49999 14.0343 8.49999 14.2V16C8.49999 16.1657 8.6343 16.3 8.79999 16.3V16.9C8.30301 16.9 7.89999 16.497 7.89999 16V14.2C7.89999 13.703 8.30301 13.3 8.79999 13.3H9.96072C10.0845 12.8852 10.2518 12.4847 10.46 12.1051L9.63495 11.2802C9.4662 11.1118 9.3714 10.8833 9.3714 10.645C9.3714 10.4067 9.4662 10.1782 9.63495 10.01L10.91 8.73496C11.2652 8.395 11.8252 8.395 12.1804 8.73496L13.0052 9.55959C13.3847 9.35166 13.7852 9.18453 14.2 9.061V7.9C14.2 7.40302 14.603 7 15.1 7H16.9C17.397 7 17.8 7.40302 17.8 7.9V9.061C18.2148 9.18465 18.6153 9.35191 18.9948 9.55995L19.8198 8.73496C20.1752 8.395 20.7351 8.395 21.0904 8.73496L22.3652 10.0096C22.4486 10.0929 22.5149 10.1919 22.5601 10.3009C22.6052 10.4099 22.6285 10.5267 22.6285 10.6446C22.6285 10.7626 22.6053 10.8794 22.5601 10.9884C22.5149 11.0974 22.4487 11.1964 22.3652 11.2798L21.5402 12.1048C21.7481 12.4845 21.9154 12.8851 22.0393 13.3H23.2C23.697 13.3 24.1 13.703 24.1 14.2V16C24.1 16.497 23.697 16.9 23.2 16.9Z" fill="white"/>
<path d="M20.2 15.1H19.6C19.6 13.1118 17.9882 11.5 16 11.5C14.0118 11.5 12.4 13.1118 12.4 15.1H11.8C11.8 12.7804 13.6804 10.9 16 10.9C18.3195 10.9 20.2 12.7804 20.2 15.1Z" fill="white"/>
<path d="M16 17.5C15.0059 17.5 14.2 16.6939 14.2 15.7C14.2 14.7059 15.0059 13.9 16 13.9C16.9942 13.9 17.8 14.7059 17.8 15.7C17.799 16.6937 16.9938 17.4989 16 17.5ZM16 14.5C15.3373 14.5 14.8 15.0373 14.8 15.7C14.8 16.3627 15.3373 16.9 16 16.9C16.6627 16.9 17.2 16.3627 17.2 15.7C17.2 15.0373 16.6627 14.5 16 14.5ZM21.1 18.7C20.1059 18.7 19.3 17.8939 19.3 16.9C19.3 15.9058 20.1059 15.1 21.1 15.1C22.0941 15.1 22.9 15.9058 22.9 16.9C22.899 17.8937 22.0938 18.6989 21.1 18.7ZM21.1 15.7C20.4373 15.7 19.9 16.2373 19.9 16.9C19.9 17.5627 20.4373 18.1 21.1 18.1C21.7627 18.1 22.3 17.5627 22.3 16.9C22.3 16.2373 21.7627 15.7 21.1 15.7ZM10.9 18.7C9.9059 18.7 9.10001 17.8939 9.10001 16.9C9.10001 15.9058 9.9059 15.1 10.9 15.1C11.8942 15.1 12.7 15.9058 12.7 16.9C12.699 17.8937 11.8938 18.6989 10.9 18.7ZM10.9 15.7C10.2373 15.7 9.70001 16.2373 9.70001 16.9C9.70001 17.5627 10.2373 18.1 10.9 18.1C11.5627 18.1 12.1 17.5627 12.1 16.9C12.1 16.2373 11.5627 15.7 10.9 15.7Z" fill="white"/>
<path d="M23.8197 19.4697C23.3726 19.1624 22.8425 18.9985 22.3 19H19.9C19.754 19.0013 19.6084 19.0145 19.4646 19.0395C19.2726 18.7393 19.0229 18.4802 18.73 18.2772C18.6861 18.244 18.6399 18.214 18.5917 18.1873C18.172 17.9332 17.6906 17.7992 17.2 17.8H14.8C14.3487 17.7984 13.9043 17.9113 13.5084 18.128C13.1125 18.3448 12.778 18.6584 12.5362 19.0395C12.3921 19.0145 12.2462 19.0013 12.1 19H9.7C9.15782 18.9985 8.62804 19.1621 8.18113 19.4691C7.8174 19.7166 7.51966 20.0492 7.31381 20.438C7.10795 20.8268 7.00023 21.2601 7 21.7V22.9C7.00105 23.7191 7.47766 24.463 8.22169 24.8062C8.49633 24.9355 8.79644 25.0018 9.1 25H12.1V24.4H9.4V21.1H8.8V24.3699C8.68707 24.3472 8.57735 24.3108 8.4733 24.2614C8.21305 24.1414 7.99255 23.9494 7.83781 23.7082C7.68307 23.467 7.60056 23.1866 7.6 22.9V21.7C7.60036 21.3576 7.68434 21.0205 7.84465 20.718C8.00495 20.4155 8.23671 20.1567 8.5198 19.9641C8.86712 19.7258 9.27876 19.5988 9.7 19.6H12.1C12.1529 19.6 12.2038 19.6056 12.2554 19.6092C12.1539 19.8953 12.1013 20.1964 12.1 20.5V23.5C12.101 24.3281 12.7721 24.9989 13.6 25H14.5V20.2H13.9V24.4H13.6C13.103 24.4 12.7 23.997 12.7 23.5V20.5C12.7 19.3401 13.6403 18.4 14.8 18.4H17.2C17.586 18.4003 17.9644 18.5071 18.2935 18.7087C18.3239 18.7253 18.3532 18.744 18.381 18.7647C18.6621 18.9572 18.8928 19.2144 19.0537 19.5147C19.2153 19.8179 19.2999 20.1563 19.3 20.5V23.5C19.3 23.997 18.897 24.4 18.4 24.4H18.1V20.2H17.5V25H18.4C19.2281 24.9989 19.8989 24.3281 19.9 23.5V20.5C19.8986 20.1964 19.8462 19.8953 19.7448 19.6092C19.7965 19.6056 19.8475 19.6 19.9 19.6H22.3C22.7216 19.5989 23.1335 19.7261 23.481 19.9647C23.7638 20.1573 23.9954 20.4161 24.1555 20.7185C24.3157 21.0209 24.3996 21.3578 24.4 21.7V22.9C24.3995 23.1875 24.3164 23.4689 24.1607 23.7106C24.0051 23.9523 23.7833 24.1443 23.5217 24.2637C23.4192 24.3122 23.3112 24.3479 23.2 24.3699V21.1H22.6V24.4H19.9V25H22.9C23.2017 25.0019 23.5001 24.9365 23.7733 24.8085C24.5198 24.4664 24.9988 23.7211 25 22.9V21.7C24.9998 21.2602 24.8921 20.8272 24.6864 20.4385C24.4807 20.0498 24.1832 19.7172 23.8197 19.4697Z" fill="white"/>
<path d="M14.8 24.4H17.2V25H14.8V24.4Z" fill="white"/>
</svg>
