<svg width="32" height="32" viewBox="0 0 32 32" fill="none" xmlns="http://www.w3.org/2000/svg">
<circle cx="16" cy="16" r="16" fill="#F7853E"/>
<path d="M24.6033 12.9941L19.538 10.1783C19.2839 8.38434 17.7383 7 15.8752 7C14.0121 7 12.4665 8.38434 12.2124 10.1784L11.2867 10.693C11.2535 10.7111 11.2242 10.7356 11.2006 10.765C11.1769 10.7945 11.1593 10.8283 11.1488 10.8646C11.1383 10.9009 11.135 10.9389 11.1393 10.9765C11.1435 11.014 11.1552 11.0503 11.1735 11.0834C11.1919 11.1164 11.2166 11.1455 11.2463 11.1689C11.2759 11.1923 11.3099 11.2096 11.3463 11.2199C11.3827 11.2301 11.4207 11.233 11.4582 11.2285C11.4957 11.2239 11.532 11.212 11.5648 11.1933L12.1789 10.852C12.1973 11.3112 12.3016 11.763 12.4866 12.1838L7.57248 14.9154V13.4126L8.87348 12.6894C8.90634 12.6711 8.93527 12.6466 8.95863 12.6171C8.98199 12.5877 8.99933 12.5539 9.00964 12.5177C9.01995 12.4816 9.02305 12.4438 9.01874 12.4064C9.01443 12.3691 9.00281 12.333 8.98454 12.3001C8.96628 12.2672 8.94172 12.2383 8.91227 12.2149C8.88282 12.1916 8.84906 12.1742 8.81291 12.1639C8.77676 12.1536 8.73893 12.1505 8.70158 12.1548C8.66424 12.1591 8.62811 12.1708 8.59526 12.189L7.14713 12.9941C7.10253 13.0189 7.06537 13.0552 7.03951 13.0992C7.01364 13.1432 7 13.1933 7 13.2443V15.402C7 15.4519 7.01302 15.5009 7.03776 15.5441C7.06251 15.5874 7.09812 15.6235 7.14109 15.6488C7.18405 15.674 7.23287 15.6877 7.28271 15.6883C7.33256 15.6889 7.3817 15.6765 7.42527 15.6523L7.94079 15.3657V24.7138C7.94079 24.7897 7.97095 24.8625 8.02463 24.9162C8.07831 24.9698 8.15111 25 8.22703 25H10.1932C10.2691 25 10.3419 24.9698 10.3956 24.9162C10.4493 24.8625 10.4794 24.7897 10.4794 24.7138V16.9423H21.271V24.7138C21.271 24.7897 21.3011 24.8625 21.3548 24.9162C21.4085 24.9698 21.4813 25 21.5572 25H23.5234C23.5993 25 23.6721 24.9698 23.7258 24.9162C23.7795 24.8625 23.8096 24.7897 23.8096 24.7138V22.1315C23.8096 22.0555 23.7795 21.9827 23.7258 21.9291C23.6721 21.8754 23.5993 21.8452 23.5234 21.8452C23.4475 21.8452 23.3746 21.8754 23.321 21.9291C23.2673 21.9827 23.2371 22.0555 23.2371 22.1315V24.4275H21.8435V16.6561C21.8435 16.5802 21.8133 16.5074 21.7596 16.4537C21.7059 16.4 21.6331 16.3699 21.5572 16.3699H10.1932C10.1173 16.3699 10.0444 16.4 9.99077 16.4537C9.93709 16.5074 9.90693 16.5802 9.90693 16.6561V24.4275H8.51327V15.0474L12.7568 12.6885C13.4148 13.7165 14.5667 14.3993 15.8752 14.3993C17.1837 14.3993 18.3356 13.7165 18.9936 12.6884L23.2371 15.0475V19.4325C23.2371 19.5085 23.2673 19.5813 23.321 19.635C23.3746 19.6886 23.4475 19.7188 23.5234 19.7188C23.5993 19.7188 23.6721 19.6886 23.7258 19.635C23.7795 19.5813 23.8096 19.5085 23.8096 19.4325V15.3657L24.3251 15.6522C24.3687 15.6765 24.4178 15.6889 24.4677 15.6883C24.5175 15.6877 24.5664 15.6741 24.6093 15.6487C24.6523 15.6235 24.6879 15.5874 24.7126 15.5441C24.7374 15.5009 24.7504 15.4519 24.7504 15.402V13.2443C24.7504 13.1932 24.7368 13.1431 24.7109 13.0991C24.685 13.0551 24.6479 13.0189 24.6033 12.9941V12.9941ZM15.8752 13.8269C14.1508 13.8269 12.748 12.424 12.748 10.6996C12.748 8.97526 14.1508 7.5724 15.8752 7.5724C17.5996 7.5724 19.0024 8.97526 19.0024 10.6996C19.0024 12.424 17.5996 13.8269 15.8752 13.8269ZM24.178 14.9154L19.2638 12.1837C19.4488 11.7629 19.5531 11.3112 19.5715 10.8519L24.1779 13.4126L24.178 14.9154Z" fill="white"/>
<path d="M9.95551 12.0468C10.0041 12.0468 10.0519 12.0344 10.0943 12.0108L10.356 11.8653C10.3891 11.8472 10.4184 11.8227 10.4421 11.7933C10.4657 11.7638 10.4833 11.73 10.4939 11.6937C10.5044 11.6574 10.5076 11.6194 10.5034 11.5818C10.4991 11.5443 10.4875 11.5079 10.4691 11.4749C10.4508 11.4419 10.426 11.4128 10.3964 11.3894C10.3667 11.366 10.3328 11.3487 10.2964 11.3384C10.26 11.3282 10.222 11.3253 10.1844 11.3298C10.1469 11.3344 10.1107 11.3463 10.0778 11.365L9.8162 11.5104C9.76072 11.5412 9.71705 11.5895 9.69205 11.6479C9.66705 11.7062 9.66214 11.7712 9.67809 11.8326C9.69404 11.894 9.72994 11.9484 9.78016 11.9872C9.83038 12.0259 9.89206 12.0469 9.95551 12.0468ZM23.5234 20.3647C23.4475 20.3647 23.3747 20.3949 23.321 20.4486C23.2673 20.5022 23.2371 20.575 23.2371 20.651V20.9503C23.2371 21.0262 23.2673 21.099 23.321 21.1527C23.3747 21.2064 23.4475 21.2365 23.5234 21.2365C23.5993 21.2365 23.6721 21.2064 23.7258 21.1527C23.7795 21.099 23.8096 21.0262 23.8096 20.9503V20.651C23.8096 20.575 23.7795 20.5022 23.7258 20.4486C23.6721 20.3949 23.5993 20.3647 23.5234 20.3647ZM12.7237 18.1106C12.6851 18.0844 12.6406 18.068 12.5942 18.0629C12.5478 18.0578 12.5008 18.0641 12.4574 18.0813C11.5642 18.435 10.9871 19.284 10.9871 20.2441C10.9871 21.0963 11.4553 21.8773 12.1945 22.2834V24.7137C12.1945 24.7896 12.2246 24.8624 12.2783 24.9161C12.332 24.9698 12.4048 25 12.4807 25H14.1457C14.2216 25 14.2944 24.9698 14.3481 24.9161C14.4017 24.8624 14.4319 24.7896 14.4319 24.7137V22.2833C15.1711 21.8774 15.6393 21.0963 15.6393 20.2441C15.6393 19.284 15.0622 18.435 14.169 18.0813C14.1256 18.0641 14.0786 18.0578 14.0322 18.0629C13.9858 18.0681 13.9413 18.0845 13.9027 18.1107C13.8641 18.137 13.8325 18.1722 13.8106 18.2135C13.7888 18.2548 13.7774 18.3007 13.7773 18.3474V20.3803H12.849V18.3474C12.849 18.3007 12.8376 18.2547 12.8158 18.2135C12.7939 18.1722 12.7623 18.1369 12.7237 18.1107V18.1106ZM14.0635 20.9527C14.1395 20.9527 14.2123 20.9226 14.266 20.8689C14.3196 20.8152 14.3498 20.7424 14.3498 20.6665V18.8288C14.7955 19.1533 15.0668 19.6726 15.0668 20.2441C15.0668 20.9343 14.6593 21.5627 14.0287 21.845C13.9782 21.8676 13.9354 21.9043 13.9054 21.9506C13.8753 21.997 13.8594 22.0511 13.8594 22.1063V24.4275H12.767V22.1063C12.767 22.051 12.751 21.997 12.7209 21.9506C12.6909 21.9043 12.6481 21.8676 12.5977 21.8451C11.9671 21.5627 11.5596 20.9343 11.5596 20.2442C11.5596 19.6726 11.8309 19.1533 12.2766 18.8288V20.6665C12.2766 20.7424 12.3067 20.8152 12.3604 20.8689C12.4141 20.9226 12.4869 20.9527 12.5628 20.9527H14.0635ZM17.6048 25H19.2697C19.3456 25 19.4184 24.9698 19.4721 24.9161C19.5258 24.8624 19.5559 24.7896 19.5559 24.7137V22.2508C20.2951 21.8449 20.7633 21.0638 20.7633 20.2117C20.7633 18.9291 19.7198 17.8856 18.4372 17.8856C17.1546 17.8856 16.1111 18.9291 16.1111 20.2117C16.1111 21.0637 16.5794 21.8449 17.3185 22.2509V24.7137C17.3185 24.7896 17.3487 24.8624 17.4024 24.9161C17.4561 24.9698 17.5289 25 17.6048 25ZM16.6836 20.2117C16.6836 19.2447 17.4703 18.458 18.4372 18.458C19.4041 18.458 20.1908 19.2447 20.1908 20.2117C20.1908 20.9018 19.7833 21.5302 19.1527 21.8126C19.1023 21.8351 19.0595 21.8718 19.0294 21.9182C18.9994 21.9645 18.9834 22.0186 18.9834 22.0739V24.4275H17.891V22.0738C17.891 22.0186 17.875 21.9645 17.845 21.9182C17.8149 21.8718 17.7721 21.8352 17.7217 21.8126C17.0911 21.5302 16.6836 20.9017 16.6836 20.2117Z" fill="white"/>
<path d="M18.4372 21.4791C18.4874 21.4791 18.5368 21.4659 18.5803 21.4408L19.43 20.9501C19.4736 20.925 19.5097 20.8889 19.5348 20.8454C19.5599 20.8018 19.5732 20.7525 19.5732 20.7022V19.7211C19.5732 19.6708 19.5599 19.6215 19.5348 19.578C19.5097 19.5344 19.4736 19.4983 19.43 19.4732L18.5803 18.9826C18.5368 18.9575 18.4874 18.9442 18.4372 18.9442C18.387 18.9442 18.3376 18.9575 18.2941 18.9826L17.4444 19.4732C17.4008 19.4983 17.3647 19.5344 17.3396 19.578C17.3145 19.6215 17.3012 19.6708 17.3012 19.7211V20.7023C17.3012 20.7525 17.3145 20.8019 17.3396 20.8454C17.3647 20.8889 17.4008 20.9251 17.4444 20.9502L18.2941 21.4408C18.3376 21.4659 18.3869 21.4791 18.4372 21.4791ZM17.8737 19.8863L18.4372 19.5609L19.0007 19.8863V20.537L18.4372 20.8623L17.8737 20.537V19.8863ZM15.8752 9.69653C15.3221 9.69653 14.8721 10.1465 14.8721 10.6996C14.8721 11.2527 15.3221 11.7027 15.8752 11.7027C16.4282 11.7027 16.8782 11.2527 16.8782 10.6996C16.8782 10.1465 16.4282 9.69653 15.8752 9.69653ZM15.8752 11.1302C15.6378 11.1302 15.4446 10.937 15.4446 10.6996C15.4446 10.4622 15.6378 10.269 15.8752 10.269C16.1126 10.269 16.3058 10.4622 16.3058 10.6996C16.3058 10.937 16.1126 11.1302 15.8752 11.1302Z" fill="white"/>
<path d="M18.1755 10.0363H17.9832C17.9445 9.91275 17.8948 9.79287 17.8348 9.67812L17.9708 9.54207C18.0245 9.48839 18.0546 9.41559 18.0546 9.33968C18.0546 9.26377 18.0245 9.19097 17.9708 9.13729L17.4376 8.60402C17.411 8.57742 17.3794 8.55632 17.3447 8.54192C17.31 8.52752 17.2727 8.5201 17.2352 8.5201C17.1976 8.5201 17.1603 8.5275 17.1256 8.5419C17.0909 8.55629 17.0593 8.57738 17.0327 8.60398L16.8967 8.74007C16.7819 8.68003 16.6621 8.63035 16.5385 8.59163V8.39928C16.5385 8.32336 16.5083 8.25056 16.4546 8.19687C16.401 8.14319 16.3282 8.11304 16.2522 8.11304H15.4982C15.4223 8.11304 15.3495 8.14319 15.2958 8.19687C15.2421 8.25056 15.212 8.32336 15.212 8.39928V8.59159C15.0884 8.63035 14.9685 8.68004 14.8537 8.74007L14.7177 8.60398C14.6911 8.5774 14.6596 8.55632 14.6248 8.54193C14.5901 8.52755 14.5529 8.52015 14.5153 8.52015C14.4777 8.52016 14.4405 8.52756 14.4057 8.54195C14.371 8.55634 14.3395 8.57744 14.3129 8.60402L13.7797 9.13729C13.7531 9.16386 13.732 9.19541 13.7176 9.23015C13.7032 9.26488 13.6958 9.3021 13.6958 9.3397C13.6958 9.37729 13.7032 9.41452 13.7176 9.44925C13.732 9.48398 13.7531 9.51554 13.7797 9.54211L13.9157 9.67816C13.8557 9.79288 13.806 9.91273 13.7673 10.0363H13.575C13.499 10.0363 13.4262 10.0664 13.3725 10.1201C13.3189 10.1738 13.2887 10.2466 13.2887 10.3225V11.0767C13.2887 11.1526 13.3189 11.2254 13.3725 11.2791C13.4262 11.3328 13.499 11.3629 13.575 11.3629H13.7673C13.806 11.4865 13.8557 11.6063 13.9157 11.7211L13.7797 11.8571C13.726 11.9108 13.6958 11.9836 13.6958 12.0596C13.6958 12.1355 13.726 12.2083 13.7797 12.262L14.3129 12.7952C14.3666 12.8489 14.4394 12.879 14.5153 12.879C14.5912 12.879 14.664 12.8489 14.7177 12.7952L14.8538 12.6591C14.9685 12.7191 15.0884 12.7688 15.212 12.8075V12.9999C15.212 13.0758 15.2421 13.1486 15.2958 13.2023C15.3495 13.256 15.4223 13.2861 15.4982 13.2861H16.2523C16.3282 13.2861 16.401 13.256 16.4547 13.2023C16.5084 13.1486 16.5386 13.0758 16.5386 12.9999V12.8076C16.6621 12.7688 16.782 12.7191 16.8968 12.6591L17.0328 12.7952C17.0865 12.8489 17.1593 12.879 17.2352 12.879C17.3111 12.879 17.384 12.8489 17.4376 12.7952L17.9709 12.262C18.0245 12.2083 18.0546 12.1355 18.0546 12.0596C18.0546 11.9836 18.0245 11.9108 17.9709 11.8571L17.8348 11.7211C17.8948 11.6063 17.9445 11.4865 17.9833 11.3629H18.1756C18.2515 11.3629 18.3243 11.3327 18.378 11.279C18.4316 11.2254 18.4618 11.1526 18.4618 11.0766V10.3226C18.4618 10.2466 18.4316 10.1738 18.378 10.1202C18.3243 10.0665 18.2515 10.0363 18.1756 10.0363H18.1755ZM17.8893 10.7904H17.7613C17.6951 10.7904 17.6309 10.8134 17.5797 10.8554C17.5285 10.8974 17.4934 10.9559 17.4805 11.0209C17.439 11.2305 17.3564 11.4299 17.2374 11.6075C17.2006 11.6626 17.184 11.7287 17.1905 11.7946C17.197 11.8605 17.2261 11.9221 17.273 11.969L17.3636 12.0596L17.2351 12.188L17.1445 12.0973C17.0977 12.0505 17.0361 12.0214 16.9702 12.0149C16.9043 12.0084 16.8382 12.025 16.7831 12.0618C16.6055 12.1807 16.4061 12.2634 16.1965 12.3049C16.1315 12.3179 16.073 12.3529 16.031 12.4041C15.989 12.4553 15.966 12.5194 15.966 12.5857V12.7137H15.7844V12.5857C15.7844 12.5194 15.7614 12.4553 15.7194 12.4041C15.6774 12.3529 15.6189 12.3179 15.554 12.3049C15.3443 12.2634 15.1449 12.1807 14.9673 12.0618C14.9122 12.025 14.8461 12.0084 14.7802 12.0149C14.7143 12.0214 14.6527 12.0505 14.6059 12.0973L14.5153 12.188L14.3869 12.0596L14.4774 11.9689C14.5243 11.9221 14.5534 11.8605 14.5599 11.7946C14.5664 11.7287 14.5498 11.6626 14.513 11.6075C14.3941 11.4299 14.3114 11.2305 14.2699 11.0209C14.257 10.9559 14.222 10.8975 14.1708 10.8554C14.1196 10.8134 14.0554 10.7905 13.9892 10.7904H13.8612V10.6088H13.9891C14.0554 10.6088 14.1196 10.5858 14.1707 10.5438C14.2219 10.5018 14.257 10.4433 14.2699 10.3783C14.3114 10.1687 14.3941 9.96926 14.5131 9.79167C14.5499 9.7366 14.5664 9.67048 14.5599 9.60457C14.5534 9.53867 14.5243 9.47705 14.4774 9.43023L14.3869 9.33966L14.5153 9.21122L14.6059 9.30187C14.6528 9.34866 14.7144 9.37778 14.7802 9.38426C14.8461 9.39075 14.9122 9.37421 14.9673 9.33745C15.1449 9.21846 15.3443 9.13583 15.5539 9.09431C15.6189 9.0814 15.6774 9.04636 15.7194 8.99516C15.7614 8.94396 15.7844 8.87978 15.7844 8.81355V8.68556H15.966V8.81355C15.966 8.95013 16.0625 9.06769 16.1965 9.09431C16.4062 9.13582 16.6055 9.21846 16.7831 9.33745C16.8382 9.37422 16.9043 9.39077 16.9702 9.38429C17.0361 9.3778 17.0977 9.34868 17.1445 9.30187L17.2351 9.21122L17.3635 9.33966L17.273 9.43023C17.2262 9.47705 17.197 9.53867 17.1905 9.60457C17.184 9.67048 17.2006 9.7366 17.2374 9.79167C17.3563 9.96928 17.439 10.1687 17.4805 10.3784C17.4934 10.4433 17.5285 10.5018 17.5797 10.5438C17.6309 10.5858 17.695 10.6088 17.7613 10.6088H17.8892V10.7904H17.8893Z" fill="white"/>
</svg>
